<svg fill="none" viewBox="0 0 64 28" xmlns="http://www.w3.org/2000/svg"><g fill="currentColor"><path d="m14.0169 0c-7.62323 0-14.0169 6.25634-14.0169 13.7158 0 7.7001 6.39367 13.7158 14.0169 13.7158 7.8691 0 14.0169-6.2563 14.0169-13.7158 0-7.45946-6.1478-13.7158-14.0169-13.7158zm-12.54144 13.7158c0-1.6844.24591-3.3688.98364-5.05317l6.14776 16.12207c-4.18047-1.925-7.1314-6.0157-7.1314-11.0689zm12.54144 12.5127c-1.2296 0-2.4591-.2406-3.6887-.4813l3.6887-10.8282 3.9346 10.347v.2406c-.9837.4813-2.4591.7219-3.9346.7219zm1.7214-18.28776h1.4754c.7378 0 .4918-.96251 0-.96251 0 0-1.9673.24062-3.4427.24062-1.2296 0-3.4428-.24062-3.4428-.24062-.7377 0-.7377.96251 0 .96251h1.2296l1.9673 5.29386-2.705 8.1813-4.42643-13.47516h1.47546c.73773 0 .49182-.96251 0-.96251 0 0-1.96728.24062-3.44274.24062-.24591 0-.49182 0-.73773 0 2.21319-3.36879 6.14776-5.53445 10.57414-5.53445 3.1968 0 6.3937 1.20314 8.6069 3.12817 0 0 0 0-.2459 0-1.2296 0-2.2132.96251-2.2132 2.16566 0 .96251.4918 1.92502 1.2295 2.88754.4918.72193.9837 1.68443.9837 3.36883 0 .9625-.246 2.4063-.9837 4.0907l-1.2295 3.85zm4.6723 16.60336 3.9345-10.8283c.7378-1.6844.9837-3.1281.9837-4.33129 0-.48126 0-.96251 0-1.20314.9836 1.6844 1.4754 3.85003 1.4754 6.01573 0 4.0907-2.705 8.1813-6.3936 10.347z"></path><path d="m40.8205 7.46045-2.9509 8.18135c-.246.9625-.4919 1.925-.7378 2.8876 0-.9626-.2459-1.9251-.7377-2.8876l-2.9509-8.18135h-3.6887l5.41 13.71585h4.1805l5.41-13.71585z"></path><path d="m46.4801 7.46045-.9836 2.64695v11.0689h3.6886v-13.71585z"></path><path d="m62.7082 9.14427c-.9836-1.44378-2.2132-1.92503-3.9345-1.92503-1.7214 0-2.951.72188-3.9346 2.16565h-.2459l-.4918-1.68439h-3.1969v20.2128h3.6887v-6.2564c0-.2406 0-.9625-.2459-1.925h.2459c.9836 1.2032 2.2132 1.6844 3.6886 1.6844.9837 0 1.9673-.2406 2.951-.9625.7377-.4813 1.4754-1.4438 1.9672-2.4063.4919-1.2031.7378-2.4063.7378-3.85.2459-2.1657-.2459-3.8501-1.2296-5.05323zm-4.9182 9.38453c-.9836 0-1.7213-.2407-2.2132-.9625-.4918-.7219-.7377-1.6844-.7377-3.1282v-.4813c0-1.2031.2459-2.1656.7377-2.8875.4919-.4813 1.2296-.9625 1.9673-.9625.9836 0 1.4755.2406 1.9673.9625s.7377 1.6844.7377 3.1282c.2459 2.8875-.7377 4.3313-2.4591 4.3313z"></path></g></svg>