<?xml version="1.0" encoding="utf-8"?>
<!-- Generator: Adobe Illustrator 24.2.1, SVG Export Plug-In . SVG Version: 6.00 Build 0)  -->
<svg version="1.1" id="Layer_1" xmlns="http://www.w3.org/2000/svg" xmlns:xlink="http://www.w3.org/1999/xlink" x="0px" y="0px"
	 viewBox="0 0 195.319 259.159" style="enable-background:new 0 0 195.319 259.159;" xml:space="preserve">
<style type="text/css">
	.st0{fill:url(#SVGID_1_);}
	.st1{fill:#E6E7E8;}
	.st2{fill:#1F1747;}
	.st3{fill:#42BCA2;}
	.st4{fill:#A6A8AB;}
	.st5{fill:#6BCDB2;}
	.st6{fill:#FFFFFF;}
	.st7{fill:url(#SVGID_2_);}
	.st8{fill:#D0D2D3;}
	.st9{fill:#533D24;}
	.st10{fill:#191334;}
	.st11{fill:url(#SVGID_3_);}
	.st12{fill:none;stroke:#F0525A;stroke-width:55;stroke-miterlimit:10;}
	.st13{fill:#E2F4EE;}
	.st14{fill:url(#SVGID_4_);}
	.st15{fill:#F0525A;}
	.st16{fill:#3ABBA3;}
	.st17{fill:url(#SVGID_5_);}
	.st18{fill:url(#SVGID_6_);}
	.st19{fill:url(#SVGID_7_);}
	.st20{fill:url(#SVGID_8_);}
	.st21{fill:url(#SVGID_9_);}
	.st22{fill:url(#SVGID_10_);}
	.st23{fill:url(#SVGID_11_);}
	.st24{fill:url(#SVGID_15_);}
	.st25{fill:none;stroke:#D0D2D3;stroke-width:13.0904;stroke-miterlimit:10;}
	.st26{fill:url(#SVGID_16_);}
	.st27{opacity:0.15;}
	.st28{fill:url(#SVGID_17_);}
	.st29{fill:#0E0E19;}
	.st30{fill:#D1D1D1;}
	.st31{fill:#CBE8E1;}
	.st32{fill:#01BCE1;}
	.st33{fill:#544026;}
	.st34{fill:#646565;}
	.st35{fill:#56432A;}
	.st36{fill:#B3A08B;}
	.st37{fill:#CCCCCC;}
	.st38{fill:#040418;}
	.st39{fill:#D0CFCF;}
	.st40{fill:#3E3D3D;}
	.st41{fill:#C09E86;}
	.st42{fill:#BB9B83;}
	.st43{fill:#BA9D86;}
	.st44{fill:#C09F8B;}
	.st45{fill:#BDA38C;}
	.st46{fill:#646464;}
	.st47{fill:#08061A;}
	.st48{fill:url(#SVGID_18_);}
	.st49{fill:url(#SVGID_19_);}
	.st50{fill:url(#SVGID_20_);}
	.st51{fill:url(#SVGID_21_);}
	.st52{fill:url(#SVGID_22_);}
	.st53{fill:#BBA089;}
	.st54{fill:#DE5E5E;}
	.st55{fill:#010116;}
	.st56{fill:#D0D0D0;}
	.st57{fill:#BE9F86;}
	.st58{fill:#BFA189;}
	.st59{fill:#CFCFCF;}
	.st60{fill:#030317;}
	.st61{fill:#C0A188;}
	.st62{fill:#BB9886;}
	.st63{fill:#050419;}
	.st64{fill:#C2A088;}
	.st65{fill:#D1D0D0;}
	.st66{fill:#BA9B84;}
	.st67{fill:#1B4C56;}
	.st68{fill:#295862;}
	.st69{fill:#EBD5C5;}
	.st70{fill:#01C7ED;}
	.st71{fill:#C5B465;}
	.st72{fill:#EBD5C6;}
	.st73{fill:#0FC6E3;}
	.st74{fill:#010217;}
	.st75{fill:#E8D2C3;}
	.st76{fill:#C8CCCD;}
	.st77{fill:#10C8EA;}
	.st78{fill:#0D0E18;}
	.st79{fill:#191435;}
	.st80{fill:#191536;}
	.st81{fill:#B89A81;}
	.st82{fill:#B99982;}
	.st83{fill:#412D16;}
	.st84{fill:#B69880;}
	.st85{fill:#CFD0D0;}
	.st86{fill:#BC9D83;}
	.st87{fill:#B99A80;}
	.st88{fill:#101019;}
</style>
<g>
	<g>
		<rect x="3.161" y="110.789" class="st1" width="188.997" height="39.635"/>
	</g>
	<g>
		<rect x="75.062" y="44.942" class="st3" width="45.196" height="202.346"/>
	</g>
	<g>
		<g>
			<path class="st2" d="M190.319,200.399H5c-2.761,0-5-2.239-5-5v-43.418c0-2.761,2.239-5,5-5h185.319c2.761,0,5,2.239,5,5v43.418
				C195.319,198.161,193.081,200.399,190.319,200.399z"/>
		</g>
		<g>
			<circle class="st1" cx="32.658" cy="173.69" r="8.917"/>
		</g>
		<g>
			<circle class="st1" cx="61.317" cy="173.69" r="8.917"/>
		</g>
		<g>
			<circle class="st1" cx="89.976" cy="173.69" r="8.917"/>
		</g>
		<g>
			<path class="st2" d="M190.319,141.639H5c-2.761,0-5-2.239-5-5V93.221c0-2.761,2.239-5,5-5h185.319c2.761,0,5,2.239,5,5v43.418
				C195.319,139.401,193.081,141.639,190.319,141.639z"/>
		</g>
		<g>
			<circle class="st1" cx="32.658" cy="114.93" r="8.917"/>
		</g>
		<g>
			<circle class="st1" cx="61.317" cy="114.93" r="8.917"/>
		</g>
		<g>
			<circle class="st1" cx="89.976" cy="114.93" r="8.917"/>
		</g>
		<g>
			<path class="st2" d="M190.319,259.159H5c-2.761,0-5-2.239-5-5v-43.418c0-2.761,2.239-5,5-5h185.319c2.761,0,5,2.239,5,5v43.418
				C195.319,256.921,193.081,259.159,190.319,259.159z"/>
		</g>
		<g>
			<circle class="st1" cx="32.658" cy="232.45" r="8.917"/>
		</g>
		<g>
			<circle class="st1" cx="61.317" cy="232.45" r="8.917"/>
		</g>
		<g>
			<circle class="st1" cx="89.976" cy="232.45" r="8.917"/>
		</g>
	</g>
	<g>
		<g>
			<polygon class="st3" points="48.297,64.051 96.766,0 147.022,62.88 			"/>
		</g>
	</g>
</g>
</svg>
