<?xml version="1.0" encoding="utf-8"?>
<!-- Generator: Adobe Illustrator 24.2.1, SVG Export Plug-In . SVG Version: 6.00 Build 0)  -->
<svg version="1.1" id="Layer_1" xmlns="http://www.w3.org/2000/svg" xmlns:xlink="http://www.w3.org/1999/xlink" x="0px" y="0px"
	 viewBox="0 0 210.078 210.079" style="enable-background:new 0 0 210.078 210.079;" xml:space="preserve">
<style type="text/css">
	.st0{fill:url(#SVGID_1_);}
	.st1{fill:#E6E7E8;}
	.st2{fill:#1F1747;}
	.st3{fill:#42BCA2;}
	.st4{fill:#A6A8AB;}
	.st5{fill:#6BCDB2;}
	.st6{fill:#FFFFFF;}
	.st7{fill:url(#SVGID_2_);}
	.st8{fill:#D0D2D3;}
	.st9{fill:#533D24;}
	.st10{fill:#191334;}
	.st11{fill:url(#SVGID_3_);}
	.st12{fill:none;stroke:#F0525A;stroke-width:55;stroke-miterlimit:10;}
	.st13{fill:#E2F4EE;}
	.st14{fill:url(#SVGID_4_);}
	.st15{fill:#F0525A;}
	.st16{fill:#3ABBA3;}
	.st17{fill:url(#SVGID_5_);}
	.st18{fill:url(#SVGID_6_);}
	.st19{fill:url(#SVGID_7_);}
	.st20{fill:url(#SVGID_8_);}
	.st21{fill:url(#SVGID_9_);}
	.st22{fill:url(#SVGID_10_);}
	.st23{fill:url(#SVGID_11_);}
	.st24{fill:url(#SVGID_15_);}
	.st25{fill:none;stroke:#D0D2D3;stroke-width:13.0904;stroke-miterlimit:10;}
	.st26{fill:url(#SVGID_16_);}
	.st27{opacity:0.15;}
	.st28{fill:url(#SVGID_17_);}
	.st29{fill:#0E0E19;}
	.st30{fill:#D1D1D1;}
	.st31{fill:#CBE8E1;}
	.st32{fill:#01BCE1;}
	.st33{fill:#544026;}
	.st34{fill:#646565;}
	.st35{fill:#56432A;}
	.st36{fill:#B3A08B;}
	.st37{fill:#CCCCCC;}
	.st38{fill:#040418;}
	.st39{fill:#D0CFCF;}
	.st40{fill:#3E3D3D;}
	.st41{fill:#C09E86;}
	.st42{fill:#BB9B83;}
	.st43{fill:#BA9D86;}
	.st44{fill:#C09F8B;}
	.st45{fill:#BDA38C;}
	.st46{fill:#646464;}
	.st47{fill:#08061A;}
	.st48{fill:url(#SVGID_18_);}
	.st49{fill:url(#SVGID_19_);}
	.st50{fill:url(#SVGID_20_);}
	.st51{fill:url(#SVGID_21_);}
	.st52{fill:url(#SVGID_22_);}
	.st53{fill:#BBA089;}
	.st54{fill:#DE5E5E;}
	.st55{fill:#010116;}
	.st56{fill:#D0D0D0;}
	.st57{fill:#BE9F86;}
	.st58{fill:#BFA189;}
	.st59{fill:#CFCFCF;}
	.st60{fill:#030317;}
	.st61{fill:#C0A188;}
	.st62{fill:#BB9886;}
	.st63{fill:#050419;}
	.st64{fill:#C2A088;}
	.st65{fill:#D1D0D0;}
	.st66{fill:#BA9B84;}
	.st67{fill:#1B4C56;}
	.st68{fill:#295862;}
	.st69{fill:#EBD5C5;}
	.st70{fill:#01C7ED;}
	.st71{fill:#C5B465;}
	.st72{fill:#EBD5C6;}
	.st73{fill:#0FC6E3;}
	.st74{fill:#010217;}
	.st75{fill:#E8D2C3;}
	.st76{fill:#C8CCCD;}
	.st77{fill:#10C8EA;}
	.st78{fill:#0D0E18;}
	.st79{fill:#191435;}
	.st80{fill:#191536;}
	.st81{fill:#B89A81;}
	.st82{fill:#B99982;}
	.st83{fill:#412D16;}
	.st84{fill:#B69880;}
	.st85{fill:#CFD0D0;}
	.st86{fill:#BC9D83;}
	.st87{fill:#B99A80;}
	.st88{fill:#101019;}
</style>
<g>
	<g>
		<g>
			<g>
				<path class="st3" d="M105.039,210.079C47.121,210.079,0,162.959,0,105.039c0-28.057,10.926-54.435,30.765-74.274l40.533,40.533
					c-9.013,9.013-13.976,20.996-13.976,33.741c0,26.311,21.406,47.717,47.717,47.717c12.983,0,25.123-5.124,34.186-14.428
					l41.062,39.998C160.342,198.803,133.619,210.079,105.039,210.079z"/>
			</g>
		</g>
		<g>
			<g>
				<path class="st1" d="M180.287,178.325l-41.062-39.996c8.725-8.958,13.53-20.781,13.53-33.29h57.323
					C210.078,132.576,199.498,158.603,180.287,178.325z"/>
			</g>
		</g>
		<g>
			<g>
				<path class="st2" d="M210.078,105.039h-57.323c0-26.311-21.405-47.717-47.716-47.717c-12.745,0-24.728,4.963-33.742,13.976
					L30.766,30.765C50.605,10.926,76.983,0,105.039,0C162.958,0,210.078,47.121,210.078,105.039z"/>
			</g>
		</g>
	</g>
	<g>
		<g>
			<path class="st4" d="M97.898,82.471c0-3.609,2.872-6.403,7.14-6.403c4.271,0,7.143,2.65,7.143,6.181
				c0,3.831-2.872,6.631-7.143,6.631C100.769,88.88,97.898,86.08,97.898,82.471z M99.295,94.401h11.487v39.609H99.295V94.401z"/>
		</g>
	</g>
</g>
</svg>
