<?xml version="1.0" encoding="UTF-8"?> <!-- Generator: Adobe Illustrator 24.2.1, SVG Export Plug-In . SVG Version: 6.00 Build 0) --> <svg xmlns="http://www.w3.org/2000/svg" xmlns:xlink="http://www.w3.org/1999/xlink" version="1.1" id="Layer_1" x="0px" y="0px" viewBox="0 0 210.078 210.079" style="enable-background:new 0 0 210.078 210.079;" xml:space="preserve"> <style type="text/css"> .st0{fill:url(#SVGID_1_);} .st1{fill:#E6E7E8;} .st2{fill:#1F1747;} .st3{fill:#42BCA2;} .st4{fill:#A6A8AB;} .st5{fill:#6BCDB2;} .st6{fill:#FFFFFF;} .st7{fill:url(#SVGID_2_);} .st8{fill:#D0D2D3;} .st9{fill:#533D24;} .st10{fill:#191334;} .st11{fill:url(#SVGID_3_);} .st12{fill:none;stroke:#F0525A;stroke-width:55;stroke-miterlimit:10;} .st13{fill:#E2F4EE;} .st14{fill:url(#SVGID_4_);} .st15{fill:#F0525A;} .st16{fill:#3ABBA3;} .st17{fill:url(#SVGID_5_);} .st18{fill:url(#SVGID_6_);} .st19{fill:url(#SVGID_7_);} .st20{fill:url(#SVGID_8_);} .st21{fill:url(#SVGID_9_);} .st22{fill:url(#SVGID_10_);} .st23{fill:url(#SVGID_11_);} .st24{fill:url(#SVGID_15_);} .st25{fill:none;stroke:#D0D2D3;stroke-width:13.0904;stroke-miterlimit:10;} .st26{fill:url(#SVGID_16_);} .st27{opacity:0.15;} .st28{fill:url(#SVGID_17_);} .st29{fill:#0E0E19;} .st30{fill:#D1D1D1;} .st31{fill:#CBE8E1;} .st32{fill:#01BCE1;} .st33{fill:#544026;} .st34{fill:#646565;} .st35{fill:#56432A;} .st36{fill:#B3A08B;} .st37{fill:#CCCCCC;} .st38{fill:#040418;} .st39{fill:#D0CFCF;} .st40{fill:#3E3D3D;} .st41{fill:#C09E86;} .st42{fill:#BB9B83;} .st43{fill:#BA9D86;} .st44{fill:#C09F8B;} .st45{fill:#BDA38C;} .st46{fill:#646464;} .st47{fill:#08061A;} .st48{fill:url(#SVGID_18_);} .st49{fill:url(#SVGID_19_);} .st50{fill:url(#SVGID_20_);} .st51{fill:url(#SVGID_21_);} .st52{fill:url(#SVGID_22_);} .st53{fill:#BBA089;} .st54{fill:#DE5E5E;} .st55{fill:#010116;} .st56{fill:#D0D0D0;} .st57{fill:#BE9F86;} .st58{fill:#BFA189;} .st59{fill:#CFCFCF;} .st60{fill:#030317;} .st61{fill:#C0A188;} .st62{fill:#BB9886;} .st63{fill:#050419;} .st64{fill:#C2A088;} .st65{fill:#D1D0D0;} .st66{fill:#BA9B84;} .st67{fill:#1B4C56;} .st68{fill:#295862;} .st69{fill:#EBD5C5;} .st70{fill:#01C7ED;} .st71{fill:#C5B465;} .st72{fill:#EBD5C6;} .st73{fill:#0FC6E3;} .st74{fill:#010217;} .st75{fill:#E8D2C3;} .st76{fill:#C8CCCD;} .st77{fill:#10C8EA;} .st78{fill:#0D0E18;} .st79{fill:#191435;} .st80{fill:#191536;} .st81{fill:#B89A81;} .st82{fill:#B99982;} .st83{fill:#412D16;} .st84{fill:#B69880;} .st85{fill:#CFD0D0;} .st86{fill:#BC9D83;} .st87{fill:#B99A80;} .st88{fill:#101019;} </style> <g> <g> <path class="st5" d="M163.529,195.097l31.568-31.568l-11.146-11.146c4.728-7.883,8.177-16.322,10.338-25.022l15.79,0l0-44.643 l-15.79,0c-2.16-8.7-5.609-17.14-10.337-25.022l11.146-11.146l-31.568-31.568l-11.146,11.146 c-7.883-4.728-16.323-8.177-25.023-10.338V0L82.718,0l0,15.79c-8.7,2.161-17.14,5.609-25.023,10.338L46.549,14.982L14.981,46.549 l11.146,11.146c-4.728,7.883-8.177,16.322-10.338,25.022l-15.79,0l0,44.643l15.79,0c2.161,8.7,5.609,17.14,10.338,25.023 L14.982,163.53l31.568,31.568l11.146-11.146c7.883,4.728,16.323,8.177,25.022,10.337l0,15.79l44.643,0l0-15.79 c8.7-2.161,17.139-5.609,25.022-10.337L163.529,195.097z M73.926,136.153c-17.155-17.155-17.155-45.071,0-62.227 s45.071-17.155,62.226,0.001s17.155,45.07,0,62.225S91.082,153.308,73.926,136.153z"></path> </g> <g> <g> <path class="st1" d="M169.018,160.072H41.06c-1.647,0-2.982-1.335-2.982-2.982V52.989c0-1.647,1.335-2.982,2.982-2.982h127.958 c1.647,0,2.982,1.335,2.982,2.982V157.09C172,158.737,170.665,160.072,169.018,160.072z"></path> </g> <g> <path class="st2" d="M172,76.846H38.078V52.989c0-1.647,1.335-2.982,2.982-2.982h127.958c1.647,0,2.982,1.335,2.982,2.982V76.846 z"></path> </g> <g> <rect x="50.006" y="88.488" class="st4" width="110.065" height="41.464"></rect> </g> <g> <rect x="50.006" y="141.881" class="st4" width="49.068" height="17.893"></rect> </g> <g> <rect x="111.003" y="141.881" class="st4" width="49.068" height="17.893"></rect> </g> <g> <circle class="st6" cx="54.486" cy="63.427" r="4.48"></circle> </g> <g> <circle class="st6" cx="68.886" cy="63.427" r="4.48"></circle> </g> <g> <circle class="st6" cx="83.286" cy="63.427" r="4.48"></circle> </g> </g> </g> </svg> 