<?xml version="1.0" encoding="UTF-8"?> <!-- Generator: Adobe Illustrator 24.2.1, SVG Export Plug-In . SVG Version: 6.00 Build 0) --> <svg xmlns="http://www.w3.org/2000/svg" xmlns:xlink="http://www.w3.org/1999/xlink" version="1.1" id="Layer_1" x="0px" y="0px" viewBox="0 0 1669.72 1191.831" style="enable-background:new 0 0 1669.72 1191.831;" xml:space="preserve"> <style type="text/css"> .st0{fill:url(#SVGID_1_);} .st1{fill:#E6E7E8;} .st2{fill:#1F1747;} .st3{fill:#42BCA2;} .st4{fill:#A6A8AB;} .st5{fill:#6BCDB2;} .st6{fill:#FFFFFF;} .st7{fill:url(#SVGID_2_);} .st8{fill:#D0D2D3;} .st9{fill:#533D24;} .st10{fill:#191334;} .st11{fill:url(#SVGID_3_);} .st12{fill:none;stroke:#F0525A;stroke-width:55;stroke-miterlimit:10;} .st13{fill:#E2F4EE;} .st14{fill:url(#SVGID_4_);} .st15{fill:#F0525A;} .st16{fill:#3ABBA3;} .st17{fill:url(#SVGID_5_);} .st18{fill:url(#SVGID_6_);} .st19{fill:url(#SVGID_7_);} .st20{fill:url(#SVGID_8_);} .st21{fill:url(#SVGID_9_);} .st22{fill:url(#SVGID_10_);} .st23{fill:url(#SVGID_11_);} .st24{fill:url(#SVGID_15_);} .st25{fill:none;stroke:#D0D2D3;stroke-width:13.0904;stroke-miterlimit:10;} .st26{fill:url(#SVGID_16_);} .st27{opacity:0.15;} .st28{fill:url(#SVGID_17_);} .st29{fill:#0E0E19;} .st30{fill:#D1D1D1;} .st31{fill:#CBE8E1;} .st32{fill:#01BCE1;} .st33{fill:#544026;} .st34{fill:#646565;} .st35{fill:#56432A;} .st36{fill:#B3A08B;} .st37{fill:#CCCCCC;} .st38{fill:#040418;} .st39{fill:#D0CFCF;} .st40{fill:#3E3D3D;} .st41{fill:#C09E86;} .st42{fill:#BB9B83;} .st43{fill:#BA9D86;} .st44{fill:#C09F8B;} .st45{fill:#BDA38C;} .st46{fill:#646464;} .st47{fill:#08061A;} .st48{fill:url(#SVGID_18_);} .st49{fill:url(#SVGID_19_);} .st50{fill:url(#SVGID_20_);} .st51{fill:url(#SVGID_21_);} .st52{fill:url(#SVGID_22_);} .st53{fill:#BBA089;} .st54{fill:#DE5E5E;} .st55{fill:#010116;} .st56{fill:#D0D0D0;} .st57{fill:#BE9F86;} .st58{fill:#BFA189;} .st59{fill:#CFCFCF;} .st60{fill:#030317;} .st61{fill:#C0A188;} .st62{fill:#BB9886;} .st63{fill:#050419;} .st64{fill:#C2A088;} .st65{fill:#D1D0D0;} .st66{fill:#BA9B84;} .st67{fill:#1B4C56;} .st68{fill:#295862;} .st69{fill:#EBD5C5;} .st70{fill:#01C7ED;} .st71{fill:#C5B465;} .st72{fill:#EBD5C6;} .st73{fill:#0FC6E3;} .st74{fill:#010217;} .st75{fill:#E8D2C3;} .st76{fill:#C8CCCD;} .st77{fill:#10C8EA;} .st78{fill:#0D0E18;} .st79{fill:#191435;} .st80{fill:#191536;} .st81{fill:#B89A81;} .st82{fill:#B99982;} .st83{fill:#412D16;} .st84{fill:#B69880;} .st85{fill:#CFD0D0;} .st86{fill:#BC9D83;} .st87{fill:#B99A80;} .st88{fill:#101019;} </style> <g> <g> <g> <linearGradient id="SVGID_1_" gradientUnits="userSpaceOnUse" x1="-868.6727" y1="325.2649" x2="-397.7532" y2="796.1844" gradientTransform="matrix(1 0 0 1 1969.9424 -227.7343)"> <stop offset="0" style="stop-color:#E6E7E8"></stop> <stop offset="0.2121" style="stop-color:#DADBDC"></stop> <stop offset="0.5953" style="stop-color:#BABCBE"></stop> <stop offset="1" style="stop-color:#929497"></stop> </linearGradient> <path class="st0" d="M1669.72,266.686c0-7.93-6.428-14.358-14.358-14.358l-42.581,0c-5.765-19.794-13.703-39.086-23.805-57.51 l30.098-30.098c5.607-5.607,5.607-14.698,0-20.305l-93.769-93.768c-5.607-5.607-14.698-5.607-20.305,0l-30.098,30.098 c-18.424-10.103-37.716-18.041-57.51-23.805V14.358c0-7.93-6.428-14.358-14.358-14.358h-132.609 c-7.929,0-14.358,6.428-14.358,14.358v42.581c-19.794,5.764-39.086,13.703-57.51,23.805l-30.098-30.098 c-5.607-5.607-14.698-5.607-20.305,0l-93.769,93.769c-5.607,5.607-5.607,14.698,0,20.305l30.098,30.098 c-10.102,18.424-18.041,37.716-23.805,57.51h-42.581c-7.93,0-14.358,6.428-14.358,14.358v132.609 c0,7.93,6.428,14.358,14.358,14.358h42.581c5.765,19.794,13.703,39.086,23.805,57.51l-30.098,30.098 c-5.607,5.607-5.607,14.698,0,20.305l93.769,93.768c5.607,5.607,14.698,5.607,20.305,0l30.098-30.098 c18.424,10.102,37.716,18.041,57.51,23.805v42.581c0,7.93,6.428,14.358,14.358,14.358l132.609,0 c7.929,0,14.358-6.428,14.358-14.358v-42.581c19.794-5.765,39.086-13.703,57.51-23.805L1505,615.334 c5.607,5.607,14.698,5.607,20.305,0l93.769-93.769c5.607-5.607,5.607-14.698,0-20.305l-30.098-30.098 c10.102-18.424,18.041-37.716,23.805-57.51l42.581,0c7.93,0,14.358-6.428,14.358-14.358V266.686z M1423.043,419.304 c-47.67,47.67-124.958,47.67-172.628,0c-47.67-47.67-47.67-124.958,0-172.628c47.67-47.67,124.958-47.67,172.628,0 S1470.713,371.634,1423.043,419.304z"></path> <circle class="st25" cx="1336.729" cy="332.99" r="160.825"></circle> </g> <g> <g> <g> <g> <path class="st5" d="M1077.336,1124.635L1077.336,1124.635c-124.741,79.097-283.868,79.332-408.841,0.604l-1.218-0.767 c-136.628-86.07-219.513-236.244-219.513-397.722V316.03c0-7.196,4.538-13.611,11.323-16.006l398.835-140.818 c3.591-1.268,7.504-1.291,11.11-0.067l415.127,140.972c6.885,2.338,11.516,8.802,11.516,16.073v411.471 C1295.675,888.639,1213.292,1038.427,1077.336,1124.635z"></path> </g> </g> <linearGradient id="SVGID_2_" gradientUnits="userSpaceOnUse" x1="447.7632" y1="713.6168" x2="1295.6748" y2="713.6168"> <stop offset="0" style="stop-color:#C6EBDF"></stop> <stop offset="0.1761" style="stop-color:#BFE8DB"></stop> <stop offset="0.4311" style="stop-color:#ACE2D2"></stop> <stop offset="0.7325" style="stop-color:#8DD8C3"></stop> <stop offset="1" style="stop-color:#6BCDB2"></stop> </linearGradient> <path class="st7" d="M1077.336,1124.635L1077.336,1124.635c-124.741,79.097-283.868,79.332-408.841,0.604l-1.218-0.767 c-136.628-86.07-219.513-236.244-219.513-397.722V400.904c0-7.196,4.538-13.611,11.323-16.006L857.921,244.08 c3.591-1.268,7.504-1.291,11.11-0.067l415.127,140.972c6.885,2.338,11.516,8.802,11.516,16.073v326.597 C1295.675,888.639,1213.292,1038.427,1077.336,1124.635z"></path> <g class="st27"> <g> <path class="st5" d="M863.471,158.238c1.878-0.011,3.758,0.289,5.56,0.901l415.127,140.972 c6.885,2.338,11.516,8.802,11.516,16.073v411.471c0,160.984-82.383,310.772-218.339,396.98l0,0 c-62.37,39.548-133.337,59.381-204.333,59.486"></path> </g> </g> </g> <circle class="st6" cx="871.719" cy="632.177" r="237.284"></circle> <path class="st10" d="M871.717,437.192c-107.559,0-195.066,87.504-195.066,195.062c0,107.562,87.507,195.075,195.066,195.075 c107.557,0,195.069-87.513,195.069-195.075C1066.786,524.696,979.275,437.192,871.717,437.192z M696.338,632.254 c0-25.428,5.455-49.565,15.186-71.375l83.66,229.214C736.676,761.669,696.338,701.672,696.338,632.254z M871.717,807.646 c-17.214,0-33.831-2.524-49.547-7.146l52.626-152.905l53.905,147.692c0.355,0.867,0.79,1.665,1.256,2.417 C911.729,804.12,892.141,807.646,871.717,807.646z M895.888,550.026c10.557-0.555,20.072-1.667,20.072-1.667 c9.45-1.118,8.336-15.007-1.119-14.454c0,0-28.407,2.23-46.745,2.23c-17.232,0-46.19-2.23-46.19-2.23 c-9.457-0.553-10.566,13.895-1.113,14.454c0,0,8.946,1.112,18.395,1.667l27.322,74.866l-38.385,115.107l-63.863-189.973 c10.566-0.555,20.071-1.667,20.071-1.667c9.444-1.118,8.328-15.007-1.122-14.454c0,0-28.402,2.23-46.742,2.23 c-3.291,0-7.169-0.081-11.288-0.213c31.36-47.608,85.262-79.048,146.535-79.048c45.657,0,87.23,17.457,118.431,46.047 c-0.756-0.047-1.494-0.142-2.272-0.142c-17.227,0-29.451,15.008-29.451,31.126c0,14.454,8.339,26.682,17.227,41.135 c6.67,11.68,14.459,26.686,14.459,48.368c0,15.009-5.773,32.427-13.345,56.696l-17.497,58.447L895.888,550.026z M1025.615,548.116c13.689,24.979,21.481,53.645,21.481,84.138c0,64.703-35.065,121.191-87.205,151.591l53.567-154.878 c10.005-25.02,13.337-45.026,13.337-62.816C1026.794,559.694,1026.369,553.702,1025.615,548.116z"></path> </g> <g> <g> <path class="st10" d="M471.894,964.371h-281.71V741.772c0-77.668,63.187-140.855,140.854-140.855 c77.668,0,140.855,63.187,140.855,140.855V964.371z M259.36,895.195h143.358V741.772c0-39.524-32.155-71.679-71.679-71.679 s-71.679,32.155-71.679,71.679V895.195z"></path> </g> <linearGradient id="SVGID_3_" gradientUnits="userSpaceOnUse" x1="130.0957" y1="983.1789" x2="531.9824" y2="983.1789"> <stop offset="0" style="stop-color:#F47B81"></stop> <stop offset="0.2989" style="stop-color:#F3747B"></stop> <stop offset="0.7305" style="stop-color:#F16168"></stop> <stop offset="1" style="stop-color:#F0525A"></stop> </linearGradient> <path class="st11" d="M514.325,1184.122H147.753c-9.752,0-17.658-7.906-17.658-17.658V799.893 c0-9.752,7.906-17.658,17.658-17.658h366.571c9.752,0,17.658,7.906,17.658,17.658v366.571 C531.982,1176.217,524.077,1184.122,514.325,1184.122z"></path> <g> <circle class="st10" cx="331.039" cy="939.224" r="36.132"></circle> <path class="st10" d="M346.369,1069.03h-30.66c-9.486,0-16.848-8.275-15.745-17.696l12.34-105.419h37.47l12.34,105.419 C363.217,1060.756,355.855,1069.03,346.369,1069.03z"></path> </g> </g> </g> <g> <g> <path class="st9" d="M1422.644,1103.031c-1.431-6.189-2.629-12.442-4.339-18.553c-3.895-13.913-7.979-27.775-12.108-41.621 c-2.417-8.107-4.807-16.239-7.674-24.191c-4.141-11.486-8.487-22.911-13.156-34.192c-3.947-9.539-8.066-19.054-12.875-28.175 c-4.111-7.798-5.739-15.761-5.034-24.409c1.359-16.669,2.857-33.33,3.884-50.02c0.772-12.55,0.898-25.141,1.311-37.713 c-1.007,0.024-2.015,0.047-3.022,0.071c-2.688,1.102-5.347,2.284-8.07,3.29c-6.033,2.228-12.098,4.368-18.15,6.543 c-9.366,3.805-18.595,8.012-28.14,11.298c-9.027,3.107-18.361,5.341-27.614,7.756c-2.816,0.735-5.799,0.924-8.722,1.133 c-4.498,0.321-9.009,0.462-13.516,0.644c-4.292,0.173-8.617,0.695-12.872,0.357c-6.522-0.518-12.997-1.641-19.492-2.507 c0.25,1.267,0.707,2.533,0.716,3.802c0.087,12.605-0.066,25.214,0.185,37.815c0.21,10.522,0.865,21.035,1.334,31.552 c0.042,0.934,0.26,1.865,0.245,2.795c-0.231,13.72-0.511,27.44-0.731,41.161c-0.247,15.408-0.966,30.831-0.55,46.222 c0.721,26.663,2.242,53.303,3.262,79.959c0.525,13.714,0.54,28.201,0.87,41.923c0.638,0.662,1.612,0.465,2.04,1.243 c2.722,4.951,6.99,5.498,11.936,4.43c4.656-1.005,8.562-3.37,12.121-6.421c0.097-2.242-0.026-4.519,0.328-6.719 c1.521-9.463,3.427-18.869,4.736-28.359c2.233-16.19,4.233-32.414,6.121-48.648c1.627-13.984,2.908-28.008,4.441-42.004 c1.879-17.164,3.601-34.352,5.889-51.462c1.543-11.538,4.144-22.931,5.906-34.445c1.447-9.454,2.223-19.009,3.535-28.486 c1.543-11.151,3.343-22.266,5.032-33.396c0.346-3.159,0.692-6.317,1.037-9.476c0.37,0.015,0.74,0.029,1.11,0.044 c0,3.108,0,6.215,0,9.323c0.047,1.894,0.093,3.787,0.139,5.681c0.05,1.11,0.101,2.221,0.151,3.331 c0.258,2.265,0.515,4.529,0.773,6.794c0.088,0.377,0.176,0.753,0.264,1.13c0.52,4.469,0.84,8.972,1.596,13.401 c2.557,14.986,4.819,30.044,8.057,44.886c2.846,13.048,8.382,25.273,13.678,37.52c7.321,16.93,16.013,33.154,25.566,48.889 c4.072,6.707,9.255,12.737,13.904,19.096c4.656,6.367,9.102,12.896,13.953,19.109c6.706,8.588,13.675,16.971,20.607,25.379 c1.286,1.56,7.287,8.828,8.767,10.229c2.506,0.718,2.375,0.102,4.819,0.989c2.147,0.779,5.331-1.968,6.549-3.584 C1423.83,1113.281,1422.522,1107.167,1422.644,1103.031z"></path> <path class="st29" d="M1397.75,516.205c12.289-5.934,21.335-14.744,23.579-28.707c0.963-5.99-0.603-11.99-3.769-17.358 c-1.329-2.253-2.728-4.464-3.447-5.639c1.472-7.941,2.917-14.892,4.009-21.898c0.806-5.171-0.584-10.068-2.87-14.717 c-0.498-1.013-0.876-2.101-1.478-3.046c-5.203-8.169-6.21-17.06-5.158-26.513c1.068-9.6-2.475-17.789-9.197-24.508 c-2.045-2.044-2.994-3.972-2.859-6.875c0.798-17.16-12.599-34.24-27.607-39.626c-1.797-0.645-4.06-2.033-4.666-3.625 c-3.405-8.946-10.991-12.715-19.082-15.351c-7.441-2.425-15.163-2.299-22.631,0.864c-1.447,0.613-3.268,0.777-4.844,0.578 c-12.009-1.518-22.148,1.838-30.691,10.626c-8.023,8.252-10.274,18.092-9.121,29.06c0.259,2.462,0.718,4.744-0.811,7.015 c-0.705,1.047-0.762,2.506-1.286,3.702c-4.393,10.012-4.264,20.141-0.556,30.247c1.205,3.284,0.671,5.828-0.771,8.994 c-5.34,11.725-6.763,23.991-1.759,36.146c1.76,4.276-0.243,15.15,0.074,15.904c1.884-1.255,102.115,8.549,102.216,9.097 c8.482,4.333,15.716,9.862,18.909,19.385c2.574,7.676,3.124,15.668,3.748,23.638c0.157,2.001-0.552,4.057-0.544,6.086 C1397.146,511.857,1397.53,514.031,1397.75,516.205z"></path> <path class="st30" d="M1264.486,1157.223c-3.558,3.05-7.465,5.416-12.121,6.421c-4.946,1.067-9.215,0.521-11.936-4.43 c-0.318-0.578-0.851-1.036-1.366-1.505c-0.388-0.354-0.925-0.525-1.442-0.433c-2.213,0.393-2.886,2.481-3.58,4.284 c-1.743,4.528-4.976,6.98-9.372,8.995c-6.74,3.089-13.526,5.347-20.92,6.109c-4.757,0.49-6.816,3.007-7.071,7.279 c-0.203,3.406,2.129,6.769,6.292,7.489c8.459,1.464,53.351-1.486,62.425-2.717c1.285-0.174,2.54-0.687,3.765-1.159 c4.157-1.601,6.488-4.989,6.576-9.519c0.142-7.29-3.098-13.453-6.838-19.329 C1268.249,1157.69,1266.084,1155.747,1264.486,1157.223z"></path> <path class="st9" d="M1292.156,440.425c-9.208,17.957-30.37,81.396-31.511,97.484c-0.462,6.51-3.063,13.461-4.882,19.875 c-6.191,16.147-36.034,35.973-57.391,46.339c-12.218,5.93-24.614,11.598-37.279,16.476c-17.727,6.828-35.058,13.891-50.08,26.144 c-10.432,8.509-30.012,9.511-31.189,2.297c-1.177-7.214,6.647-9.658,10.943-12.676c32.191-22.613,64.464-45.128,97.205-66.93 c8.823-5.876,28.334-13.604,33.774-22.411c18.375-29.752,21.812-54.678,40.127-84.467 C1267.126,454.012,1276.117,438.088,1292.156,440.425z"></path> <path class="st30" d="M1422.644,1103.031c-0.122,4.135-7.274,12.974-9.421,12.195c-2.444-0.887-11.92-3.603-7.601,2.983 c2.411,3.078,1.338,6.284-0.882,8.723c-5.281,5.802-10.642,11.581-16.445,16.845c-5.397,4.895-6.756,10.19-3.119,16.487 c2.178,3.771,3.847,4.776,7.802,3.158c4.822-1.972,9.542-4.353,13.966-7.104c7.776-4.834,15.375-9.966,22.881-15.214 c3.356-2.347,6.436-5.14,9.411-7.972c4.314-4.107,4.708-11.945,0.487-16.87c-3.761-4.389-8.036-8.368-12.348-12.233 C1426.334,1103.098,1424.249,1103.333,1422.644,1103.031z"></path> <path class="st31" d="M1387.718,468.546c-12.111-13.375-33.148-18.355-42.002-19.424c-0.341-0.115-0.738-0.062-1.109-0.088 c-0.166,1.857-0.29,3.72-0.504,5.572c-1.655,14.313-12.161,20.591-25.642,17.434c-3.287-0.77-5.63-2.522-7.238-5.589 c-4.004-7.637-5.313-15.894-6.028-24.321c-3.674-0.564-7.368-1.021-11.013-1.733c-2.175-0.425-4.033-0.286-5.581,1.423 c-0.383,0.393-1.167,1.224-1.168,1.223c-4.755,9.367-21.116,32.663-27.413,59.271c-0.812,5.157-21.06,76.554,5.706,122.618 c11.071-0.144,82.681-10.097,88.057-9.62c0-6.267,16.892-51.468,17.083-57.439 C1371.176,548.135,1389.661,470.692,1387.718,468.546z"></path> <path class="st32" d="M1323.136,616.272c-0.724,0.03-1.448,0.059-2.172,0.087c0-0.001,0-0.001,0-0.002 c-1.522,0.106-3.044,0.212-4.566,0.319c-2.039,0.146-4.108,0.119-6.112,0.469c-8.447,1.474-16.866,3.104-25.31,4.594 c-6.405,1.13-12.833,2.134-19.25,3.193c-49.718,74.857-20.325,116.281-73.386,221.368c-0.505,1-1.692,1.591-2.15,2.568 c-0.88,1.879-0.398,3.465,1.212,4.984c82.78,78.043,148.014-5.4,222.579-23.613c3.127-0.764,5.195-2.145,5.195-5.625 c0.001-127.104-40.181-194.359-65.393-209.301c-3.044-0.352-6.088-0.704-9.132-1.056c-0.052,0.237-0.103,0.474-0.155,0.71 c0.052-0.237,0.103-0.474,0.155-0.71c-1.119-0.011-2.239-0.022-3.358-0.034c0,0,0-0.001,0-0.001 c-3.025,0.136-6.049,0.271-9.074,0.407l0,0c-0.745,0.27-1.488,0.54-2.233,0.81c0,0,0,0,0,0 C1327.702,615.716,1325.419,615.994,1323.136,616.272 M1245.4,672.981c0.276-0.127,0.481-0.276,0.584-0.457 C1245.881,672.706,1245.676,672.855,1245.4,672.981z"></path> <path class="st31" d="M1265.726,624.931c6.417-1.06,85.013-9.971,88.057-9.62c0.39-1.77,6.506-23.793,6.898-25.563 c-5.432-0.049-87.895,12.907-98.21,11.168c-1.641-0.277-3.26-0.686-4.889-1.033 C1258.662,601.758,1265.308,623.899,1265.726,624.931z"></path> <path class="st33" d="M1375.243,469.439c2.477-3.056,6.838-4.006,10.322-2.181c8.54,4.473,12.155,13.448,15.956,22.185 c3.604,8.285,16.375,59.843,19.305,77.256c0.554,3.297,2.863,14.189,3.266,17.513c-0.235,0.921-19.446,19.384-31.622,25.755 c-6.534-15.801-15.072-36.293-21.605-52.094c-6.7-18.341-9.369-37.143-7.291-56.671 C1364.832,489.376,1367.897,478.502,1375.243,469.439z"></path> <path class="st34" d="M1206.825,894.431c-19.053,18.686-38.063,37.417-57.176,56.043c-13.844,13.491-30.238,20.924-49.864,19.8 c-25.752-1.476-42.56-22.594-38.155-48.076c2.935-16.977,12.104-30.415,24.787-41.744 c37.301-33.32,187.652-167.108,215.031-191.882c19.775-17.894,39.223-36.15,58.82-54.244 c10.983-8.733,101.749-90.398,117.206-103.696c6.08-5.23,8.201-10.252,7.179-18.729c-5.103-42.31,23.446-78.203,65.309-83.061 c6.005-0.697,18.908,0.896,18.916,4.645c0.008,3.749-4.17,5.919-8.667,10.423c-4.497,4.504-22.074,21.121-28.909,28.768 c-6.835,7.647-3.632,26.6-3.406,31.422c0.616,13.124,11.747,20.74,20.232,21.919s22.4,4.743,32.72-3.062 s16.627-14.899,25.176-22.072c5.772-4.842,13.818-13.784,18.886-12.154c5.068,1.63,4.171,12.028,3.561,18.047 c-4.255,41.955-42.549,71.91-84.349,65.18c-8.983-1.446-14.689,0.595-20.426,6.754c-5.942,6.38-12.503,12.183-18.794,18.237 c-7.218-4.499-13.674-2.767-19.786,2.332c-9.015,7.522-14.922,16.432-13.187,28.85c-10.645,11.029-21.29,22.058-31.93,33.086 c0.005-0.001,0.199-0.15,0.199-0.15C1427.069,674.278,1212.271,887.666,1206.825,894.431z"></path> <path class="st35" d="M1471.93,628.13c-1.735-12.418,4.172-21.328,13.187-28.85c6.112-5.1,12.568-6.832,19.786-2.332 c5.645,6.79,5.56,20.535-6.989,28.673C1485.365,633.76,1473.963,629.412,1471.93,628.13z"></path> </g> <path class="st9" d="M1305.194,442.13c0.715,8.427,2.025,16.683,6.028,24.321c1.608,3.068,3.951,4.82,7.238,5.589 c13.481,3.157,23.987-3.121,25.642-17.434c0.214-1.852,0.339-3.714,0.504-5.572c0.373-5.412,0.963-10.821,1.044-16.237 c0.056-3.716-0.716-7.438-0.871-11.168c-0.059-1.42,0.206-3.101,0.947-4.268c21.637-16.013,27.841-43.94,26.722-49.868 c-1.665-8.823-12.036-10.477-14.773-4.496c-0.788-0.714-2.624-2.209-4.266-3.894c-6.574-6.748-13.326-13.106-22.102-17.164 c-10.706-4.951-21.595-5.794-32.92-3.246c-3.651,0.822-5.902,2.669-7.582,6.497c-5.448,12.411-6.927,25.391-5.917,38.563 c0.876,11.421,3.465,22.58,10.29,32.321c2.434,3.474,5.157,6.405,8.827,8.474c2.599,1.465,3.543,3.259,2.633,6.493 C1305.638,434.59,1305.632,438.421,1305.194,442.13z"></path> </g> <g> <path class="st36" d="M178.309,1049.615c-4.044,15.428-11.122,12.521-16.543,12.511c-5.775-0.01-15.473-0.911-21.247-1.458 c-0.388-7.691-2.986-28.908-7.916-33.225c14.723-0.938,30.108,4.869,44.821,3.932 C177.716,1037.458,178.012,1043.536,178.309,1049.615z"></path> <path class="st37" d="M301.221,733.423c1.069-1.689,8.946-2.983,10.47-3.971c13.901-9.012,27.95-17.797,41.953-26.651 c-1.417,17.406-2.25,34.889-4.457,52.196c-1.374,10.773-10.499,25.731-12.295,27.268c0,0-71.408,21.141-65.141,13.942 C261.398,794.038,308.288,734.904,301.221,733.423z"></path> <path class="st38" d="M109.86,769.107c33.085,1.701,58.556,10.686,91.641,12.391c26.094,1.344,52.184,2.788,78.288,3.908 c2.686,0.115,5.455-1.68,8.183-2.591c2.781-1.049,39.613-0.568,48.919-0.549c-0.147,3.084-0.294,6.168-0.441,9.252 c1.012,16.612-6.914,29.116-18.93,39.267c-6.52,5.507-13.63,10.562-21.122,14.625c-21.557,11.69-32.728,30.868-39.264,53.287 c-12.245,42-16.694,85.062-16.526,128.692c0.016,4.028-0.408,8.058-0.625,12.082c-13.225,6.425-26.706,4.505-40.229,1.214 c-16.196-53.674-16.85-109.075-16.66-167.878c-9.35,11.572-9.456,22.343-10.524,32.248c-3.861,35.82-2.161,71.518,4.21,107.024 c1.125,6.27,0.471,12.858,0.643,19.295c-14.713,0.938-29.431,1.88-44.149,2.823c-15.136-33.607-29.421-67.518-38.354-103.436 c-7.587-30.503-12.848-61.236-11.221-92.861C84.834,815.832,97.392,787.716,109.86,769.107z"></path> <path class="st39" d="M274.7,701.116c-4.827-24.505-10.102-48.934-14.245-73.554c-1.51-8.975-4.651-13.469-14.137-13.604 c-12.546-0.179-25.209-0.415-37.75-1.096c0.473-6.738,3.999-16.464,0.944-20.591c-6.448-8.709-16.272-14.919-24.712-22.154 c-1.206-18.869,10.466-31.978,21.347-44.812c9.002-10.618,18.608-21.169,31.959-27.078c2.003-0.887,3.139-3.731,4.675-5.671 c5.015,2.588,10.03,5.176,15.045,7.765c4.498,1.597,8.996,3.194,14.546,5.165c0,6.137-0.582,12.195,0.124,18.098 c1.377,11.503,12.157,17.305,20.754,10.224c14.587-12.014,30.954-23.721,28.362-46.52c10.046,2.767,20.544,4.474,30.041,8.527 c18.375,7.843,31.18,21.604,36.479,41.197c3.22,11.904,5.325,24.11,7.935,36.178c-1.854,6.257-45.963,32.955-46.286,37.024 c-0.675,8.506-1.736,15.764-1.182,24.303c0.477,7.345-2.411,12.184-8.158,16.588c-14.351,10.995-28.143,22.717-42.434,33.794 C290.538,690.69,282.488,695.734,274.7,701.116z"></path> <path class="st40" d="M299.708,732.436c2.453,0.514,13.621,3.016,16.212,3.559c7.458,1.563,10.243,10.761,4.885,16.178 c-13.179,13.324-31.903,31.573-33.853,32.308c-1.2-12.223-1.382-26.115-2.584-38.339 C292.386,742.237,291.69,736.343,299.708,732.436z"></path> <path class="st41" d="M274.7,701.116c7.788-5.381,15.837-10.426,23.308-16.216c14.291-11.076,28.083-22.799,42.434-33.794 c5.747-4.403,8.635-9.242,8.158-16.588c-0.554-8.539-0.868-17.172-0.193-25.678c0.323-4.069,46.16-35.729,47.661-35.649 c1.97,23.948,4.154,47.879,5.816,71.847c0.694,10.005-2.931,18.611-10.812,25.322c-12.57,10.703-24.963,21.614-37.428,32.44 c-14.003,8.854-61.258,39.436-69.276,43.342C281.145,731.134,277.923,716.125,274.7,701.116z"></path> <path class="st42" d="M214.954,403.255c15.907,8.326,31.968,6.898,48.179,0.919c18.935-6.983,30.316-2.972,37.355,12.968 c8.31,18.82,4.089,32.542-13.641,41.815c-15.366,8.036-31.679,15.146-48.373,9.606c-4.748-1.576-9.98-2.381-14.707-4.022 c-0.566-3.345-0.002-13.171-1.172-16.292C217.147,433.715,214.194,418.815,214.954,403.255z"></path> <path class="st30" d="M178.309,1049.615c7.445,6.474,8.432,16.613,1.542,25.997c-4.153,5.656-9.157,10.903-14.571,15.375 c-12.787,10.56-25.101,21.916-41.639,26.877c-5.922,1.777-10.846,1.788-15.185-2.995c-5.067-5.587-3.638-11.583,0.053-16.69 c7.075-9.789,13.508-20.204,21.587-30.434c-0.132-3.052-0.871-4.864-0.966-8.762c-0.111-4.567,3.761-8.624,8.321-8.903 C139.98,1049.926,170.307,1058.794,178.309,1049.615z"></path> <path class="st43" d="M257.827,500.322c22.218,2.501,38.56-8.153,52.834-23.519c1.648-1.774,2.601-9.267,4.416-10.889 c1.842,5.121,4.688,16.252,6.532,21.376c2.595,22.798-13.772,34.506-28.359,46.52c-8.597,7.08-19.377,1.279-20.754-10.224 c-0.707-5.903-0.124-11.96-0.124-18.098C266.823,503.516,262.325,501.919,257.827,500.322z"></path> <path class="st44" d="M184.801,570.117c8.439,7.235,18.264,13.445,24.712,22.154c3.055,4.126-0.425,14.381-0.897,21.119 c-23.147,0.015-37.142,0.444-37.142,0.444C175.388,600.33,181.072,582.979,184.801,570.117z"></path> <path class="st45" d="M241.867,1058.706c-4.017,0.056-8.6,10.907-12.193,12.169c-9.884,3.472-18.391-11.154-27.139-15.175 c-0.928-5.009-1.857-10.018-2.783-15.021c13.525,3.297,27.007,5.217,40.231-1.209 C240.609,1045.886,241.238,1052.296,241.867,1058.706z"></path> <path class="st46" d="M39.503,771.115c-4.868-0.409-8.896-3.992-9.868-8.78c-9.81-48.274-19.468-95.799-29.439-144.863 c-1.21-5.956,3.332-11.544,9.409-11.55c58.709-0.055,225.081,7.869,236.713,8.035c9.486,0.135,12.626,4.629,14.137,13.604 c3.379,20.075,23.029,113.427,30.168,147.207c1.31,6.199-3.614,11.943-9.94,11.591C228.41,783.448,58.547,772.717,39.503,771.115z "></path> <path class="st30" d="M241.867,1058.706c8.003,6.601,9.18,18.751,1.612,26.789c-5.445,5.784-11.73,11.054-18.425,15.324 c-12.192,7.777-24.897,14.765-37.534,21.821c-4.739,2.646-10.619,3.057-13.496-1.797c-1.92-3.241-1.68-8.813-0.382-12.659 c1.889-5.596,5.518-10.626,8.552-15.811c5.233-8.941,12.933-16.645,11.453-28.577c-0.647-5.22,3.673-7.831,8.886-8.097 C211.283,1059.722,223.633,1069.03,241.867,1058.706z"></path> <path class="st47" d="M246.908,508.581c-26.57-7.366-27.794-44.597-23.686-56.559c0.34,2.414,15.366,29.525,63.624,6.936 c17.73-9.273,21.951-22.995,13.641-41.815c-7.038-15.94-18.42-19.951-37.355-12.968c-16.211,5.978-32.272,7.407-48.179-0.919 c-1.327-1.527-2.809-2.946-3.957-4.598c-13.422-19.318-6.077-40.09,17.166-43.097c19.894-2.573,40.383-1.952,60.504-0.845 c11.998,0.66,20.939,7.706,26.495,19.761c13.268,28.784,11.159,57.895,4.329,87.421c-0.142,0.613-0.305,1.221-0.485,1.826 c-1.497,5.042-4.323,9.583-8.071,13.272C294.522,493.152,270.843,515.216,246.908,508.581z"></path> </g> </g> </svg> 