<?xml version="1.0" encoding="utf-8" ?>
<!DOCTYPE svg PUBLIC "-//W3C//DTD SVG 1.1//EN" "http://www.w3.org/Graphics/SVG/1.1/DTD/svg11.dtd">
<svg xmlns="http://www.w3.org/2000/svg" width="90" height="90" viewBox="0 0 90 90" fill="none"><circle cx="45" cy="45" r="45" fill="url('#paint0_radial')"/><g clip-path="url('#clip0')"><path d="M31.0908 37.007C31.0908 34.6002 30.0416 33.3968 27.9434 33.3968C26.7623 33.3968 25.8979 33.8103 25.3535 34.6308C24.8091 35.4513 24.5023 36.7346 24.4429 38.4675H17.0429C17.221 34.6735 18.3736 31.8203 20.5004 29.908C22.6273 27.9956 25.315 27.0405 28.5636 27.0427C31.9618 27.0427 34.5241 27.895 36.2507 29.5994C37.9773 31.3039 38.8416 33.5226 38.8438 36.2554C38.8438 39.2749 37.677 42.2353 35.3434 45.1367C32.9969 48.0443 30.1644 50.5279 26.9701 52.4786H39.3321V58.5603H17V52.9283C26.3939 46.2526 31.0908 40.9455 31.0908 37.007Z" fill="#21154A"/><path d="M62.2615 33.6133H48.1707V39.9149C48.8803 39.1569 49.773 38.592 50.7638 38.2738C51.9298 37.8683 53.1578 37.6673 54.3929 37.6798C56.4868 37.6798 58.2464 38.1426 59.6716 39.0681C61.0697 39.9701 62.1646 41.2674 62.8157 42.7932C63.5103 44.4233 63.8575 46.179 63.8352 47.9493C63.8352 51.3605 62.8751 54.0572 60.955 56.0396C59.0349 58.0219 56.3252 59.0088 52.8258 59C50.7033 59.0519 48.5968 58.622 46.6663 57.743C45.0124 56.9847 43.6129 55.769 42.6347 54.241C41.6691 52.6743 41.148 50.8766 41.127 49.039H48.527C48.6433 49.9741 49.072 50.8433 49.7444 51.5071C50.1097 51.8436 50.539 52.1041 51.007 52.2732C51.475 52.4423 51.9722 52.5166 52.4695 52.4917C53.7892 52.4917 54.7866 52.065 55.4619 51.2117C56.1371 50.3584 56.467 49.2271 56.4516 47.8181C56.4516 46.4658 56.0975 45.4222 55.3893 44.687C54.6811 43.9518 53.6913 43.5853 52.42 43.5875C51.5667 43.5542 50.7223 43.771 49.9918 44.2111C49.3802 44.5962 48.9156 45.1739 48.6722 45.8521H41.3051V27H62.2615V33.6133Z" fill="#21154A"/><path d="M76.6229 34.332H71.9546V51.6645H76.6229V34.332Z" fill="#36BDA4"/><path d="M83.0034 45.3238V40.6797H65.5805V45.3238H83.0034Z" fill="#36BDA4"/></g><defs><radialGradient id="paint0_radial" cx="0" cy="0" r="1" gradientUnits="userSpaceOnUse" gradientTransform="translate(45 45) rotate(90) scale(45)"><stop stop-color="white"/><stop offset="1" stop-color="#EFEFEF"/></radialGradient><clipPath id="clip0"><rect width="66" height="32" fill="white" transform="translate(17 27)"/></clipPath></defs></svg>