<?xml version="1.0" encoding="utf-8" ?>
<!DOCTYPE svg PUBLIC "-//W3C//DTD SVG 1.1//EN" "http://www.w3.org/Graphics/SVG/1.1/DTD/svg11.dtd">
<svg xmlns="http://www.w3.org/2000/svg" width="52" height="52" viewBox="0 0 52 52" fill="none"><g clip-path="url('#clip0')"><path d="M10.1171 51.3767L0.599392 41.835C-0.143808 41.0918 -0.143808 39.8691 0.599392 39.1259L39.1499 0.551418C39.8931 -0.191781 41.1158 -0.191781 41.859 0.551418L51.4007 10.0931C52.1439 10.8363 52.1439 12.059 51.4007 12.8022L12.8262 51.3767C12.083 52.1199 10.8843 52.1199 10.1171 51.3767Z" fill="#36BDA4"/><path d="M52.0003 25.9641L45.1197 32.8446L25.9883 13.7132L31.5023 8.19918C32.2455 7.45598 33.4682 7.45598 34.2114 8.19918L52.0003 25.9641Z" fill="white"/><path d="M31.5023 43.7289L25.9883 38.2149L45.1197 19.0835L52.0003 25.9641L34.2354 43.7289C33.4682 44.4721 32.2695 44.4721 31.5023 43.7289Z" fill="white"/><path d="M0 25.9641L6.88059 19.0835L26.012 38.2149L20.4979 43.7289C19.7547 44.4721 18.532 44.4721 17.7888 43.7289L0 25.9641Z" fill="#E6E7E8"/><path d="M20.474 8.19918L25.988 13.7132L6.88059 32.8446L0 25.9641L17.7649 8.19918C18.5081 7.45598 19.7308 7.45598 20.474 8.19918Z" fill="#E6E7E8"/></g><defs><clipPath id="clip0"><rect width="52" height="51.9281" fill="white"/></clipPath></defs></svg>