<?xml version="1.0" encoding="utf-8" ?>
<!DOCTYPE svg PUBLIC "-//W3C//DTD SVG 1.1//EN" "http://www.w3.org/Graphics/SVG/1.1/DTD/svg11.dtd">
<svg xmlns="http://www.w3.org/2000/svg" width="90" height="90" viewBox="0 0 90 90" fill="none"><circle cx="45" cy="45" r="45" fill="url('#paint0_radial')"/><path d="M30.75 34.6668V54.3335H50.4167V34.6668H30.75Z" fill="white"/><path d="M19.6875 35.8957V53.104L25.8333 54.3332L31.9792 53.104V35.8957L25.8333 34.6665L19.6875 35.8957Z" fill="#1E88E5"/><path d="M61.4792 44.5002V61.7085C61.4792 63.7452 59.8284 65.396 57.7917 65.396H31.9792L30.75 59.2502L31.9792 53.1043H49.1875V44.5002L55.3333 43.271L61.4792 44.5002Z" fill="#4CAF50"/><path d="M61.4792 27.2915V44.4998H49.1875V35.8957H31.9792L30.75 29.7498L31.9792 23.604H57.7917C59.8284 23.604 61.4792 25.2548 61.4792 27.2915Z" fill="#FBC02D"/><path d="M31.9792 53.104V65.3957H23.375C21.3383 65.3957 19.6875 63.7449 19.6875 61.7082V53.104H31.9792Z" fill="#1565C0"/><path d="M31.9792 23.604V35.8957H19.6875L31.9792 23.604Z" fill="#E53935"/><path d="M62.7083 44.5002L61.4792 54.8867L49.1875 44.5002L61.4792 34.1138L62.7083 44.5002Z" fill="#2E7D32"/><path d="M72.5415 27.4267V61.5729C72.5415 62.6054 71.3369 63.1831 70.538 62.5317L61.479 54.8863V34.1133L70.538 26.4679C71.3369 25.8165 72.5415 26.3942 72.5415 27.4267Z" fill="#4CAF50"/><defs><radialGradient id="paint0_radial" cx="0" cy="0" r="1" gradientUnits="userSpaceOnUse" gradientTransform="translate(45 45) rotate(90) scale(45)"><stop stop-color="white"/><stop offset="1" stop-color="#EFEFEF"/></radialGradient></defs></svg>