<?xml version="1.0" encoding="utf-8" ?>
<!DOCTYPE svg PUBLIC "-//W3C//DTD SVG 1.1//EN" "http://www.w3.org/Graphics/SVG/1.1/DTD/svg11.dtd">
<svg xmlns="http://www.w3.org/2000/svg" width="52" height="52" viewBox="0 0 52 52" fill="none"><g clip-path="url('#clip0')"><path d="M40.4889 48.2956L48.2958 40.4887L45.5435 37.7364C46.7206 35.7803 47.5688 33.7031 48.1054 31.5393H52.0175V20.4953H48.1054C47.5688 18.3489 46.7206 16.2543 45.5435 14.2983L48.2958 11.5286L40.4889 3.7217L37.7366 6.47404C35.7805 5.29694 33.7033 4.44874 31.5395 3.91212V0H20.4956V3.91212C18.3491 4.44874 16.2545 5.29694 14.2985 6.47404L11.5288 3.70439L3.70461 11.5286L6.45694 14.281C5.27985 16.237 4.43164 18.3142 3.89503 20.478H-0.0170898V31.522H3.89503C4.43164 33.6684 5.27985 35.763 6.45694 37.719L3.70461 40.4714L11.5288 48.2956L14.2812 45.5433C16.2372 46.7204 18.3145 47.5686 20.4782 48.1052V52.0173H31.5222V48.1052C33.6687 47.5686 35.7632 46.7204 37.7192 45.5433L40.4889 48.2956Z" fill="white"/><path d="M34.7935 28.7523H17.2236V14.8695C17.2236 10.0226 21.1704 6.0932 25.9999 6.0932C30.8295 6.0932 34.7935 10.0226 34.7935 14.8695V28.7523ZM21.5339 24.4421H30.466V14.8695C30.466 12.4114 28.458 10.4035 25.9999 10.4035C23.5419 10.4035 21.5339 12.4114 21.5339 14.8695V24.4421Z" fill="#1F1646"/><path d="M37.4247 42.462H14.5751C13.9693 42.462 13.4673 41.9773 13.4673 41.3542V18.5046C13.4673 17.8988 13.952 17.3968 14.5751 17.3968H37.4247C38.0305 17.3968 38.5325 17.8815 38.5325 18.5046V41.3542C38.5325 41.96 38.0478 42.462 37.4247 42.462Z" fill="#36BDA4"/><path d="M25.9998 29.4274C27.2427 29.4274 28.2502 28.4199 28.2502 27.1771C28.2502 25.9343 27.2427 24.9268 25.9998 24.9268C24.757 24.9268 23.7495 25.9343 23.7495 27.1771C23.7495 28.4199 24.757 29.4274 25.9998 29.4274Z" fill="#1F1646"/><path d="M26.9518 35.2783H25.0477C24.4592 35.2783 23.9918 34.759 24.061 34.1704L24.8227 27.5925H27.1769L27.9385 34.1704C28.0078 34.759 27.5577 35.2783 26.9518 35.2783Z" fill="#1F1646"/></g><defs><clipPath id="clip0"><rect width="52" height="52" fill="white"/></clipPath></defs></svg>