<?xml version="1.0" encoding="utf-8" ?>
<!DOCTYPE svg PUBLIC "-//W3C//DTD SVG 1.1//EN" "http://www.w3.org/Graphics/SVG/1.1/DTD/svg11.dtd">
<svg xmlns="http://www.w3.org/2000/svg" width="177" height="420" viewBox="0 0 177 420" fill="none"><g clip-path="url('#clip0')"><path d="M126.242 402.176C129.512 403.939 132.848 404.331 136.315 402.894C136.25 401.785 136.25 400.87 136.184 399.956C135.595 399.956 128.989 400.609 126.242 400.609C126.242 401.066 126.242 401.654 126.242 402.176Z" fill="#BBA089"/><path d="M9.74622 412.035C9.81163 414.189 10.7928 415.299 12.8859 415.234C19.754 415.169 62.009 414.32 62.9247 414.189C64.2329 413.406 64.56 412.231 64.4946 410.794C64.3638 406.616 58.0844 76.779 57.9536 76.0608C57.1686 76.0608 56.3837 76.1261 55.6642 76.1261C46.8992 75.9303 38.1343 75.6691 29.3039 75.4733C21.1276 75.2774 12.8859 75.1468 4.70963 75.0162C3.72848 75.6691 3.85929 76.6484 3.85929 77.6278C3.99011 85.9194 5.23291 156.3 5.29832 159.238C5.49455 159.761 5.62537 160.348 5.88701 160.805C6.93357 162.633 7.91472 164.527 9.09211 166.159C11.9047 170.011 13.0167 174.255 12.8205 178.955C12.7551 180.457 9.28834 185.811 7.19521 185.549C6.67193 185.484 6.14866 185.549 5.69079 185.549C5.7562 187.835 5.8216 190.185 5.88701 192.47C6.41029 192.927 9.48458 402.503 9.74622 412.035Z" fill="#FFD580"/><path d="M146.126 203.177C141.351 205.854 103.806 218.389 99.685 218.912C94.7139 219.565 89.6773 219.826 84.7061 219.695C79.8657 219.565 75.0254 218.716 70.3158 217.41C70.185 218.194 69.9888 218.912 69.9888 219.695C69.7926 226.028 69.6618 232.361 69.4655 238.694C69.1385 251.164 69.5309 263.7 68.3535 276.17C67.8957 281.001 67.307 285.832 67.0453 290.729C66.5875 297.192 66.3912 303.656 66.0642 310.12C65.9988 311.948 65.868 313.841 65.6717 315.669C65.2793 319.717 64.8868 323.83 64.4289 327.878C64.1019 330.62 63.7094 333.297 63.317 336.039C63.3824 342.894 63.3824 349.684 63.5132 356.54C63.7094 368.748 63.9711 380.957 64.1673 393.166C66.2604 395.125 68.6152 396.561 71.6895 395.974C74.0442 393.623 75.4832 390.685 76.8569 387.813C79.277 382.72 81.3048 377.497 83.0054 372.078C85.6218 363.917 88.1728 355.756 90.5276 347.53C91.9012 342.698 92.817 337.671 93.8635 332.709C94.5176 329.771 95.1063 326.833 95.6296 323.895C96.0875 321.414 96.4145 318.933 96.8724 316.518C97.4611 313.123 98.1806 309.728 98.8347 306.333C99.4888 302.938 100.077 299.543 100.732 296.148C101.451 292.557 102.105 288.966 102.89 285.441C103.74 281.458 104.591 277.41 105.441 273.427C106.291 269.118 107.142 264.744 107.992 260.435C108.123 259.913 108.385 259.391 108.842 258.933C108.973 260.696 109.17 262.459 109.3 264.157C109.758 269.38 110.412 274.603 111.328 279.76C112.113 284.004 112.571 288.248 113.094 292.492C114.075 300.392 115.122 308.226 116.038 316.126C116.757 322.198 117.28 328.27 118 334.276C118.916 342.241 119.831 350.207 120.943 358.106C121.99 365.288 122.579 372.47 123.167 379.717C123.429 382.916 123.952 386.05 124.214 389.249C124.475 391.795 126.176 400.413 126.242 400.479C128.989 400.544 136.642 401.262 137.361 399.042C138.473 395.582 139.847 392.187 140.763 388.661C142.136 383.308 143.183 377.954 144.295 372.535C144.687 370.772 144.883 369.01 145.145 367.247C146.257 359.347 147.107 351.447 147.827 343.547C149.397 326.05 150.182 308.487 150.051 290.925C149.985 280.348 150.051 269.771 149.855 259.195C149.724 252.339 149.07 245.484 148.612 238.629C147.958 228.901 147.238 219.173 146.519 209.445C146.388 207.421 146.257 205.266 146.126 203.177Z" fill="#010116"/><path d="M58.673 89.2491C58.7384 94.0152 59.6542 139.978 59.7196 140.5C61.0932 139.064 62.4668 137.693 63.7096 136.191C65.1486 134.429 66.5222 132.601 68.0267 130.707C68.3537 131.164 69.4003 134.886 69.9236 136.453C71.428 141.349 72.0167 146.442 72.867 151.469C73.1287 153.166 73.3249 154.929 73.2595 156.627C73.1287 159.956 72.8016 163.221 72.54 166.551C72.3438 169.162 72.0821 171.774 71.7551 174.32C71.0356 179.935 70.1198 185.549 69.4657 191.164C68.9424 195.8 68.6808 200.435 68.2229 205.071C68.0267 207.486 67.765 209.902 67.5034 212.318C67.1764 215.321 67.6342 216.235 70.2506 217.475C106.619 227.334 146.781 209.249 147.173 209.053C149.201 208.009 149.986 206.442 150.051 204.157C150.182 200.37 151.228 183.264 151.228 182.677C151.294 181.306 151.49 179.869 151.49 178.498C151.556 176.997 151.49 175.56 151.556 174.059C151.752 169.684 152.144 165.245 152.21 160.87C152.34 155.321 152.275 149.706 152.21 144.157C152.21 143.177 155.676 142.655 155.611 141.676C155.349 139.652 155.088 139.717 156.854 138.15C161.629 133.841 163.002 127.182 167.581 122.742C167.712 122.611 167.908 122.546 168.039 122.416C169.02 121.697 168.889 120.783 168.431 119.869C166.6 115.887 164.899 111.774 162.806 107.856C159.601 101.719 155.742 95.9738 151.49 90.5549C149.528 88.0739 147.5 85.7235 145.407 83.4385C143.575 81.4145 141.679 79.3906 139.782 77.4319C136.773 74.2981 133.568 71.4907 129.185 70.4461C126.83 69.9238 124.41 69.532 121.99 69.3362C118.72 69.075 115.449 69.0097 112.179 68.8792C111.917 70.6419 111.721 72.4047 111.328 74.1675C110.347 77.8237 106.292 80.3699 102.563 79.6517C101.386 79.3906 100.209 79.0641 99.1619 78.5418C95.3027 76.7138 91.9668 74.4287 90.5932 70.1196C89.2196 70.1196 87.9114 70.1849 86.5378 70.1196C82.1553 69.9238 78.2961 71.556 74.5677 73.384C72.867 74.2328 71.1664 75.2121 69.7928 76.5179C67.6996 78.4112 65.8027 80.5658 63.9058 82.7856C62.2706 84.6789 60.897 86.7682 59.3925 88.7268C59.3271 88.8574 58.9347 89.0533 58.673 89.2491Z" fill="white"/><path d="M116.365 12.6659C115.776 12.8618 115.645 15.0163 115.057 15.2121C111.852 16.4526 108.647 16.3873 105.245 15.9956C100.732 15.4733 96.2186 14.6245 91.6399 15.408C89.8084 15.7344 88.631 16.322 88.0423 18.2807C86.3417 24.1566 86.2108 29.9673 87.9769 35.5821C90.5933 35.2557 93.0789 34.9292 95.4991 34.7334C98.3117 34.4722 101.124 34.3416 103.937 34.2763C108.254 34.1458 112.506 34.4069 116.692 35.4515C118.196 35.778 119.635 36.235 120.813 37.3449C121.074 37.606 121.467 37.6713 121.794 37.8019C121.859 34.0805 121.729 30.4243 121.074 26.7682C120.355 23.1773 119.112 19.7823 117.542 16.4526C117.346 15.7997 116.561 13.2535 116.365 12.6659Z" fill="#BE9F86"/><path d="M111.263 56.8008C109.758 56.8008 108.057 59.347 106.488 59.2818C101.844 59.1512 97.5919 57.6495 93.7981 54.9727C93.6672 54.8421 93.471 54.8421 93.2748 54.7769C92.6861 56.8661 90.6584 66.9858 90.6584 69.989C92.032 74.2981 95.4333 76.6485 99.2271 78.4112C100.274 78.9335 101.451 79.3253 102.628 79.5211C106.357 80.2393 110.412 77.7584 111.393 74.0369C111.851 72.3394 111.982 70.5114 112.244 68.7486C112.375 65.5494 111.917 59.9346 111.263 56.8008Z" fill="#BFA189"/><path d="M4.70972 74.951C12.886 75.0816 21.1277 75.2121 29.3039 75.408C38.0689 75.6039 46.8993 75.865 55.6643 76.0609C56.4492 76.0609 57.2341 75.9956 57.9536 75.9956C57.4957 74.2328 57.0379 72.4047 56.5146 70.6419C54.8139 65.4189 53.0478 60.2611 51.3472 55.038C49.9082 50.7943 48.4691 46.6158 47.0301 42.3721C46.376 40.4787 45.8527 38.5854 45.1986 36.7573C45.0678 36.3003 44.6099 35.9738 44.3483 35.6474C43.6942 35.5821 43.1055 35.5168 42.4514 35.5168C36.0412 35.5168 29.631 35.5168 23.2208 35.5168C22.4359 35.5168 21.7164 35.3862 20.9314 35.3862C18.5767 41.0663 16.1565 46.8117 13.8017 52.4918C11.1853 58.7595 8.50351 65.0271 5.95251 71.3601C5.36382 72.47 5.10218 73.7105 4.70972 74.951Z" fill="white"/><path d="M118.981 13.3841C121.27 11.6213 122.513 7.57339 121.532 5.74532C120.551 3.91725 118.85 1.24042 114.468 2.87263C113.029 3.19907 111.393 2.80734 109.889 2.54619C108.384 2.28504 106.88 1.95859 105.441 1.43629C101.124 -0.261209 96.6106 -0.130632 92.1627 0.456963C90.0696 0.718116 88.1073 1.56686 86.4066 2.93792C82.6128 6.00647 80.1926 10.0543 78.819 14.6245C78.4266 15.9956 78.3611 17.5625 78.3611 18.9989C78.4266 24.1566 78.6228 29.2491 79.9964 34.211C82.1549 41.9151 86.5374 48.9662 93.2747 55.1686C100.012 61.371 114.141 61.0445 119.504 53.0794C121.466 49.9455 123.298 46.7464 122.906 42.9597C122.709 41.1969 122.121 39.4994 121.728 37.7366C119.962 36.1697 118.065 35.7127 116.561 35.3862C112.374 34.4069 108.057 34.0805 103.806 34.211C100.993 34.2763 98.1804 34.4722 95.3678 34.6681C92.8822 34.8639 90.462 35.2556 87.8456 35.5168C86.0796 29.902 86.2758 24.0261 87.911 18.2154C88.4343 16.322 89.6771 15.6691 91.5086 15.3427C96.0873 14.5592 100.601 15.408 105.114 15.9303C112.832 17.3014 116.692 15.1468 118.981 13.3841ZM114.795 43.7431C114.075 44.853 113.421 45.8976 112.702 46.877C110.805 49.6191 107.927 50.2067 105.441 49.3579C103.086 48.5745 100.797 47.4646 99.0962 45.5712C98.4421 44.853 97.8534 44.0043 97.1993 43.2208C101.189 41.3927 110.608 41.7192 114.795 43.7431Z" fill="#030317"/><path d="M168.17 122.35C168.039 122.481 167.843 122.546 167.712 122.677C163.068 127.116 152.275 138.215 152.275 138.215C152.406 139.195 152.34 143.112 152.406 144.091C152.406 149.641 151.425 181.175 151.359 182.611C151.359 183.199 159.339 174.646 163.002 169.684C166.011 165.636 168.889 161.458 171.571 157.214C173.533 154.146 175.496 151.077 176.608 147.552C177.065 146.05 177.131 144.548 176.738 142.981C175.626 138.542 174.122 134.167 172.029 130.054C170.721 127.443 169.478 124.896 168.17 122.35Z" fill="#C0A188"/><path d="M136.249 401.262C136.249 401.784 136.315 402.307 136.315 402.829C132.848 404.265 129.512 403.939 126.242 402.111C125.064 401.98 124.476 402.698 124.083 403.613C123.756 404.396 123.364 405.179 123.298 405.963C122.971 408.77 122.775 411.578 123.494 414.32C123.494 414.385 123.56 414.45 123.56 414.516C124.737 418.107 124.803 418.107 128.727 418.237C132.259 418.368 135.726 418.759 139.258 418.955C143.837 419.151 148.481 419.282 153.06 419.347C154.303 419.347 155.611 419.151 156.854 418.955C157.311 418.89 157.704 418.694 158.096 418.433C159.535 417.519 159.666 416.605 158.423 415.495C157.181 414.45 155.807 413.471 154.368 412.688C151.163 410.99 147.827 409.488 144.557 407.922C143.248 407.269 142.333 406.289 141.678 404.984C141.024 403.612 140.174 402.307 139.324 401.066C139.062 400.675 138.473 400.348 137.819 400.087C137.034 399.891 136.249 400.479 136.249 401.262Z" fill="#010116"/><path d="M64.4289 398.324C65.4755 398.912 68.746 399.173 69.858 399.173C70.3812 398.063 71.2316 396.235 71.6895 396.039C68.6152 396.627 66.3258 395.19 64.1673 393.232C64.2327 394.864 64.2981 396.562 64.4289 398.324Z" fill="#BB9886"/><path d="M20.8659 35.3863C21.6508 35.4516 22.3703 35.5169 23.1552 35.5169C29.5654 35.5169 35.9756 35.5169 42.3858 35.5169C43.0399 35.5169 43.6286 35.6475 44.2827 35.6475C44.0865 34.5376 43.9557 33.4277 43.5632 32.3178C40.5543 23.2427 37.4146 14.1676 34.3404 5.09254C34.275 4.89668 34.0787 4.70081 33.8171 4.30908C33.4246 4.70081 33.0976 4.96197 32.9668 5.3537C28.9767 15.3428 24.9213 25.3319 20.8659 35.3863Z" fill="#050419"/><path d="M5.69068 185.484C11.3159 187.182 12.755 180.392 12.8204 178.825C13.0166 174.124 11.9046 169.88 9.09199 166.028C7.8492 164.331 6.27936 160.871 5.2328 159.042C5.2328 159.042 0.784926 159.369 0.130826 162.829C-0.261635 167.204 -0.0654163 171.643 0.915734 175.952C1.56983 179.608 4.57871 185.354 5.69068 185.484Z" fill="#C2A088"/><path d="M64.4293 398.324C64.4293 402.503 64.4293 406.616 64.5601 410.794C64.6256 412.231 64.2985 413.406 62.9903 414.189C66.5224 415.952 69.9892 417.845 73.5213 419.543C75.2874 420.392 76.661 420.065 77.7076 418.89C78.2963 418.302 78.4271 417.65 78.2309 416.801C77.7076 414.581 76.0723 413.275 74.6333 411.774C73.0635 410.141 71.4936 408.64 69.9238 407.008C68.4848 405.506 68.7464 403.482 68.4848 401.589C68.4848 401.327 69.0734 400.936 69.4659 400.675C69.9238 400.413 70.5779 400.413 70.9703 400.087C71.7553 399.499 71.4936 398.585 70.5125 398.455C69.5967 398.324 68.6156 398.39 67.6344 398.39C66.5879 398.324 65.4759 398.912 64.4293 398.324Z" fill="#010116"/><path d="M114.795 43.7432C110.609 41.654 101.124 41.3928 97.265 43.2209C97.9191 44.0044 98.5078 44.8531 99.1619 45.5713C100.863 47.5299 103.086 48.6398 105.507 49.358C108.058 50.1415 110.87 49.5539 112.767 46.8771C113.421 45.8977 114.075 44.9184 114.795 43.7432Z" fill="#BA9B84"/></g><defs><clipPath id="clip0"><rect width="177" height="420" fill="white" transform="matrix(-1 0 0 1 177 0)"/></clipPath></defs></svg>