<?xml version="1.0" encoding="utf-8" ?>
<!DOCTYPE svg PUBLIC "-//W3C//DTD SVG 1.1//EN" "http://www.w3.org/Graphics/SVG/1.1/DTD/svg11.dtd">
<svg xmlns="http://www.w3.org/2000/svg" width="90" height="90" viewBox="0 0 90 90" fill="none"><circle cx="45" cy="45" r="45" fill="url('#paint0_radial')"/><path fill-rule="evenodd" clip-rule="evenodd" d="M13.0007 13.3608C14.4825 13.7236 15.5232 13.9918 15.6581 14.0407C15.9081 14.1087 17.3015 13.6179 18.7335 13.1135C20.1473 12.6155 21.5988 12.1042 22.025 12.1042C22.4159 12.1042 23.0787 12.394 23.7613 12.6925C24.5768 13.0492 25.4207 13.4182 25.8632 13.3202C26.676 13.14 28.2113 13.7705 28.8886 14.2659C29.5105 14.7207 30.1324 14.644 30.8242 14.5587C30.8859 14.5511 30.9481 14.5435 31.0109 14.5361C31.6255 14.4279 32.3269 15.2147 32.8371 15.7869C32.9641 15.9294 33.0793 16.0586 33.1783 16.1573C33.675 16.6527 35.8876 15.707 36.3392 15.3917C36.7907 15.0315 38.8679 14.401 39.0485 14.7162C39.2291 15.0315 39.8613 15.5268 40.2677 15.752C40.7192 15.9772 42.977 16.0673 43.2027 15.752C43.4285 15.4368 44.738 15.0315 45.0993 15.0315C45.2303 15.0315 45.4447 15.0967 45.6754 15.1669C46.0804 15.2902 46.5358 15.4288 46.6797 15.2566C46.9055 14.9864 46.4088 14.446 45.7766 14.1758C45.1444 13.9056 45.0089 12.6897 45.0993 12.0592C45.147 11.7261 45.3207 11.5816 45.5073 11.4263C45.6739 11.2877 45.8507 11.1407 45.9572 10.8433C46.183 10.2128 45.9572 9.94258 45.9572 9.94258C45.9572 9.94258 45.5508 7.60078 45.596 7.24051C45.6411 6.88023 46.4991 6.24975 47.944 6.02458C49.389 5.79941 50.7436 7.19547 50.7436 7.19547C50.7436 7.19547 50.3372 8.81671 49.8857 9.17699C49.4341 9.49223 48.4859 9.40216 48.4859 9.40216C48.4859 9.40216 47.8989 9.62734 47.944 10.3929C47.944 11.2035 49.6148 13.05 49.6148 13.05C49.6148 13.05 49.6148 13.5003 53.3175 12.8698C56.4593 12.3348 57.9431 15.2044 58.5412 16.3612C58.648 16.5677 58.7265 16.7196 58.7812 16.7878C59.1425 17.2382 56.5235 19.9853 53.7239 21.2012C50.9243 22.4171 49.2535 26.4252 49.2084 28.2716C49.1632 30.118 56.1171 31.469 57.833 31.379C58.8655 31.3519 58.4101 29.7919 57.9427 28.1906C57.6333 27.1309 57.3187 26.053 57.4266 25.3894C57.7427 23.6781 59.8198 23.1827 61.5357 22.7774C63.2516 22.3721 70.8377 25.5695 70.928 26.7855C71.0183 28.0014 74.5404 32.1446 74.5404 32.1446C76.9787 33.991 77.0691 37.3235 76.9788 37.5487C76.9452 37.6324 76.1313 37.9589 75.0989 38.3731C73.3544 39.073 70.9859 40.0233 70.7022 40.4759C70.4886 40.8167 71.4263 41.8725 72.2927 42.848C73.2583 43.9353 74.1353 44.9228 73.2309 44.7092C71.515 44.3489 64.4256 49.1676 63.7935 50.0232C63.4548 50.4816 63.1809 51.5346 62.9163 52.5521C62.687 53.4337 62.4646 54.2887 62.213 54.7068C61.9449 55.1302 61.0134 55.708 60.0969 56.2764C59.1613 56.8568 58.2413 57.4274 58.0588 57.8142C57.7716 58.4227 58.5115 59.8278 59.0992 60.9441C59.2509 61.2323 59.3925 61.5012 59.5037 61.7322C60.0456 62.8581 57.6524 64.3442 56.7493 64.4343C56.1936 64.4897 55.5524 63.3345 54.973 62.2907C54.6108 61.6381 54.2727 61.029 53.9948 60.7865C53.4654 60.3245 52.5723 60.467 50.4449 60.8065C49.6691 60.9303 48.7291 61.0804 47.5828 61.2368C43.2931 61.8223 47.6731 68.037 48.3504 66.9112C48.9826 65.7853 53.4529 65.7403 53.7239 66.1906C53.8696 66.3982 53.7082 67.2278 53.5495 68.0442C53.3638 68.9989 53.1817 69.9355 53.4981 69.8384C54.0851 69.6583 55.9816 70.5139 56.4783 71.1444C56.791 71.5412 56.8174 72.9728 56.8391 74.1478C56.8518 74.8397 56.8629 75.4425 56.9299 75.6929C56.9945 75.9185 57.3425 75.7981 57.7958 75.6412C58.6094 75.3597 59.7623 74.9608 60.2262 76.2333C60.9487 78.2148 60.2262 79.3857 59.6843 79.836C59.1425 80.2864 56.7944 79.746 54.7173 78.9804C53.2287 78.4317 52.1344 77.0273 51.2515 75.8942C50.9024 75.4462 50.5864 75.0406 50.2921 74.7471C49.2535 73.7113 47.0861 73.0358 44.8283 72.7656C42.5706 72.4954 39.9064 70.649 39.9064 70.649C38.9432 70.649 38.0777 68.5779 37.5076 67.2137C37.3027 66.7233 37.1359 66.3242 37.0165 66.1456C36.8465 65.9298 36.2957 65.7984 35.6447 65.6431C34.3935 65.3447 32.7719 64.9578 32.7719 63.7137C32.7719 61.8223 28.2564 56.4181 27.2178 55.6525C26.2244 54.887 22.4314 51.1491 23.2893 48.7172C24.1473 46.2854 23.199 41.4667 22.8378 39.8905C22.4314 38.3143 17.1031 30.7935 16.3355 30.2531C16.0438 30.0478 15.5826 29.9725 15.0857 29.8913C14.2749 29.7589 13.3688 29.611 12.9488 28.857C12.4292 27.8575 10.1091 27.3449 8.9738 27.094C8.72804 27.0397 8.53779 26.9977 8.43333 26.9656C7.80116 26.7855 6.80774 26.9656 6.49166 27.8213C6.17557 28.6769 3.87266 28.1815 3.7372 28.0014C3.60173 27.7762 3.24049 27.461 3.60173 28.7219C3.69088 29.0776 3.21618 29.623 2.48047 30.229C4.70467 23.8256 8.33455 18.0798 13.0007 13.3608Z" fill="#36BDA4"/><path d="M62 17C56.5205 17 52 21.3222 52 26.7084C52 36.0179 62 43 62 43C62 43 72 36.0179 72 26.7084C72 21.3222 67.5479 17 62 17ZM62 29.5013C60.4931 29.5013 59.2603 28.3043 59.2603 26.8414C59.2603 25.3785 60.4931 24.1816 62 24.1816C63.5068 24.1816 64.7397 25.3785 64.7397 26.8414C64.7397 28.3043 63.5068 29.5013 62 29.5013Z" fill="#1F1646"/><defs><radialGradient id="paint0_radial" cx="0" cy="0" r="1" gradientUnits="userSpaceOnUse" gradientTransform="translate(45 45) rotate(90) scale(45)"><stop stop-color="white"/><stop offset="1" stop-color="#EFEFEF"/></radialGradient></defs></svg>