<?xml version="1.0" encoding="utf-8" ?>
<!DOCTYPE svg PUBLIC "-//W3C//DTD SVG 1.1//EN" "http://www.w3.org/Graphics/SVG/1.1/DTD/svg11.dtd">
<svg xmlns="http://www.w3.org/2000/svg" width="52" height="52" viewBox="0 0 52 52" fill="none"><g clip-path="url('#clip0')"><path d="M26.0191 52.0381C40.389 52.0381 52.0381 40.389 52.0381 26.0191C52.0381 11.6491 40.389 0 26.0191 0C11.6491 0 0 11.6491 0 26.0191C0 40.389 11.6491 52.0381 26.0191 52.0381Z" fill="white"/><path d="M20.8687 11.6743C21.1358 11.7506 21.1739 12.628 21.4028 12.7043C22.7 13.2003 24.0353 13.2003 25.4087 13.0095C27.24 12.7806 29.1094 12.4373 30.9788 12.7806C31.7418 12.8951 32.1996 13.1621 32.4285 13.9633C33.1152 16.3668 33.1915 18.7704 32.4667 21.0594C31.3984 20.945 30.4065 20.7924 29.3764 20.7161C28.2319 20.6398 27.0874 20.5635 25.9047 20.5253C24.1497 20.449 22.3948 20.6016 20.678 20.9831C20.0676 21.1357 19.4571 21.3265 18.9612 21.7462C18.8467 21.8606 18.6941 21.8988 18.5415 21.9369C18.5034 20.4109 18.5415 18.923 18.8467 17.3969C19.1138 15.909 19.6479 14.5356 20.2965 13.1621C20.4491 12.9714 20.7543 11.9032 20.8687 11.6743Z" fill="#BE9F86"/><path d="M22.9671 29.7579C23.5775 29.7579 24.3024 30.788 24.9128 30.788C26.8204 30.7498 28.5372 30.1394 30.1014 29.033C30.1777 28.9949 30.254 28.9567 30.2921 28.9567C30.5592 29.8342 31.3603 33.9545 31.3603 35.2135C30.7881 36.9685 29.4146 37.9222 27.8504 38.6853C27.3926 38.876 26.9348 39.0668 26.4388 39.1431C24.9128 39.4483 23.2341 38.4182 22.8526 36.8922C22.6619 36.2054 22.6237 35.4424 22.5093 34.7175C22.5093 33.3823 22.6619 31.055 22.9671 29.7579Z" fill="#BE9F86"/><path d="M19.7622 11.9413C18.8084 11.2164 18.3124 9.53779 18.7321 8.81291C19.1517 8.08804 19.8385 6.94351 21.6316 7.63023C22.2038 7.74468 22.8906 7.59208 23.501 7.47762C24.1114 7.36317 24.76 7.24872 25.3322 7.01981C27.1253 6.33309 28.9566 6.37124 30.7878 6.60015C31.6272 6.7146 32.4283 7.05796 33.1532 7.63023C34.7174 8.88922 35.7093 10.5297 36.2435 12.4373C36.3961 13.0095 36.4342 13.62 36.4342 14.2304C36.4342 16.3287 36.3198 18.4652 35.7475 20.4872C34.87 23.6537 33.0388 26.515 30.2919 29.1093C27.545 31.7036 21.7079 31.5128 19.5333 28.2318C18.7321 26.9729 17.9691 25.6376 18.1217 24.0734C18.198 23.3485 18.4269 22.6618 18.6176 21.9369C19.3425 21.2883 20.1055 21.1357 20.7159 20.9831C22.4327 20.5635 24.1877 20.449 25.9427 20.5253C27.0872 20.5635 28.2699 20.6016 29.4144 20.7161C30.4063 20.7924 31.4364 20.945 32.5046 21.0594C33.2295 18.7322 33.1532 16.3668 32.4665 13.9633C32.2376 13.1621 31.7416 12.9332 31.0168 12.7806C29.1473 12.4754 27.2779 12.7806 25.4467 13.0095C22.3183 13.5818 20.7159 12.6662 19.7622 11.9413ZM21.479 24.4167C21.7842 24.8745 22.0512 25.2942 22.3183 25.7139C23.0813 26.8203 24.264 27.0873 25.2941 26.7439C26.2479 26.4387 27.2016 25.9809 27.8884 25.1798C28.1554 24.8745 28.3843 24.5312 28.6514 24.226C27.0872 23.4629 23.1958 23.5774 21.479 24.4167Z" fill="#1C153D"/><path d="M44.1407 42.8056C43.5303 42.0044 42.9581 41.1651 42.3095 40.3639C41.5465 39.4864 40.7834 38.5708 39.906 37.8078C39.3337 37.2737 38.647 36.854 37.9603 36.5106C36.3961 35.7476 34.8319 35.099 33.0388 35.1753C32.5047 35.2135 31.9324 35.1753 31.3983 35.1753C30.826 36.9303 29.4526 37.8841 27.8884 38.6471C27.4306 38.8379 26.9727 39.0286 26.4768 39.1049C24.9507 39.4101 23.2721 38.38 22.8906 36.854C22.6998 36.1673 22.6617 35.4043 22.5472 34.6794C21.2119 34.7557 19.8766 34.7557 18.5413 34.8701C17.5494 34.9464 16.5575 35.099 15.6037 35.328C13.8106 35.7476 12.5135 36.8921 11.2545 38.1893C10.4914 38.9905 9.69027 39.8298 8.92725 40.6691C8.16423 41.5466 7.36306 42.4241 6.63818 43.3397C11.4071 48.6809 18.3124 52 26.019 52C33.2295 52 39.7915 49.0624 44.4841 44.2935C44.4841 43.7212 44.4841 43.3015 44.4841 43.0726C44.3697 42.9963 44.2171 42.92 44.1407 42.8056Z" fill="#83CAB3"/><path d="M21.479 24.4167C23.1958 23.5774 27.0872 23.4629 28.6514 24.1878C28.3844 24.5311 28.1555 24.8364 27.8884 25.1416C27.2017 25.9427 26.2861 26.4005 25.2941 26.7058C24.264 27.0491 23.0814 26.7821 22.3183 25.6757C22.0513 25.2942 21.7842 24.8745 21.479 24.4167Z" fill="#BE9F86"/></g><defs><clipPath id="clip0"><rect width="52" height="52" fill="white"/></clipPath></defs></svg>