<?xml version="1.0" encoding="utf-8" ?>
<!DOCTYPE svg PUBLIC "-//W3C//DTD SVG 1.1//EN" "http://www.w3.org/Graphics/SVG/1.1/DTD/svg11.dtd">
<svg xmlns="http://www.w3.org/2000/svg" width="90" height="90" viewBox="0 0 90 90" fill="none"><circle cx="45" cy="45" r="45" fill="url('#paint0_radial')"/><g clip-path="url('#clip0')"><path d="M58.8406 75.1182C50.7526 80.2809 40.4262 80.3025 32.3239 75.1542L32.2452 75.1038C23.3777 69.4875 18 59.6733 18 49.1318V22.3102C18 21.8422 18.2932 21.4246 18.7366 21.2662L44.6025 12.064C44.8385 11.9776 45.0888 11.9776 45.3248 12.0568L72.2491 21.2662C72.6925 21.4174 72.9928 21.8422 72.9928 22.3174V49.1894C73 59.7021 67.658 69.4875 58.8406 75.1182Z" fill="#36BDA4"/><path d="M45.5035 59.7819C54.8757 59.7819 62.4734 52.1319 62.4734 42.6953C62.4734 33.2586 54.8757 25.6086 45.5035 25.6086C36.1313 25.6086 28.5337 33.2586 28.5337 42.6953C28.5337 52.1319 36.1313 59.7819 45.5035 59.7819Z" fill="white"/><path d="M45.5038 28.6545C37.8091 28.6545 31.5518 34.9549 31.5518 42.7026C31.5518 50.4502 37.8091 56.7506 45.5038 56.7506C53.1985 56.7506 59.4558 50.4502 59.4558 42.7026C59.4487 34.9549 53.1913 28.6545 45.5038 28.6545ZM32.9605 42.6954C32.9605 40.8665 33.3539 39.124 34.0475 37.5543L40.026 54.0649C35.8425 52.0199 32.9605 47.6997 32.9605 42.6954ZM45.5038 55.3249C44.2738 55.3249 43.0867 55.1449 41.9639 54.8137L45.7255 43.8042L49.58 54.4393C49.6086 54.5041 49.6372 54.5617 49.6729 54.6121C48.3643 55.0729 46.9626 55.3249 45.5038 55.3249ZM47.2272 36.7766C47.9853 36.7334 48.6646 36.6542 48.6646 36.6542C49.344 36.575 49.2582 35.5742 48.586 35.6102C48.586 35.6102 46.555 35.7686 45.2463 35.7686C44.0163 35.7686 41.9425 35.6102 41.9425 35.6102C41.2631 35.567 41.1844 36.611 41.8638 36.6542C41.8638 36.6542 42.5003 36.7334 43.1796 36.7766L45.1319 42.1697L42.3859 50.4574L37.8162 36.7766C38.5743 36.7334 39.2536 36.6542 39.2536 36.6542C39.9258 36.575 39.8472 35.5742 39.175 35.6102C39.175 35.6102 37.144 35.7686 35.8353 35.7686C35.5993 35.7686 35.3204 35.7614 35.0272 35.7542C37.2727 32.3268 41.1272 30.0658 45.5038 30.0658C48.7719 30.0658 51.7396 31.3259 53.9708 33.378C53.9136 33.378 53.8636 33.3708 53.8063 33.3708C52.5763 33.3708 51.6967 34.4509 51.6967 35.6102C51.6967 36.6542 52.2903 37.5327 52.9267 38.5695C53.4059 39.412 53.9637 40.492 53.9637 42.0545C53.9637 43.1346 53.5489 44.3875 53.0126 46.1372L51.7611 50.3422L47.2272 36.7766ZM56.5095 36.6398C57.4892 38.4399 58.047 40.4992 58.047 42.6954C58.047 47.3541 55.5369 51.4223 51.8112 53.6112L55.6442 42.4578C56.3593 40.6577 56.5953 39.2176 56.5953 37.9359C56.5882 37.4751 56.5596 37.043 56.5095 36.6398Z" fill="#1F1646"/></g><defs><radialGradient id="paint0_radial" cx="0" cy="0" r="1" gradientUnits="userSpaceOnUse" gradientTransform="translate(45 45) rotate(90) scale(45)"><stop stop-color="white"/><stop offset="1" stop-color="#EFEFEF"/></radialGradient><clipPath id="clip0"><rect width="55" height="67" fill="white" transform="translate(18 12)"/></clipPath></defs></svg>