<?xml version="1.0" encoding="utf-8" ?>
<!DOCTYPE svg PUBLIC "-//W3C//DTD SVG 1.1//EN" "http://www.w3.org/Graphics/SVG/1.1/DTD/svg11.dtd">
<svg xmlns="http://www.w3.org/2000/svg" width="52" height="46" viewBox="0 0 52 46" fill="none"><g clip-path="url('#clip0')"><path d="M45.0612 37.9053H1.02645C0.451638 37.9053 0 37.4533 0 36.8781V1.02724C0 0.451988 0.451638 0 1.02645 0H45.0612C45.636 0 46.0876 0.451988 46.0876 1.02724V36.8781C46.0876 37.4533 45.636 37.9053 45.0612 37.9053Z" fill="white"/><path d="M46.0876 9.2452H0V1.02724C0 0.451988 0.451638 0 1.02645 0H45.0612C45.636 0 46.0876 0.451988 46.0876 1.02724V9.2452Z" fill="#36BDA4"/><path d="M41.982 13.2515H4.10596V27.5302H41.982V13.2515Z" fill="#A6A8AB"/><path d="M21.0013 31.6391H4.10596V37.8026H21.0013V31.6391Z" fill="#A6A8AB"/><path d="M42.0023 31.6391H25.1069V37.8026H42.0023V31.6391Z" fill="#A6A8AB"/><path d="M5.64563 6.16346C6.49597 6.16346 7.18531 5.47359 7.18531 4.62259C7.18531 3.7716 6.49597 3.08173 5.64563 3.08173C4.79529 3.08173 4.10596 3.7716 4.10596 4.62259C4.10596 5.47359 4.79529 6.16346 5.64563 6.16346Z" fill="#1F1646"/><path d="M10.6134 6.16346C11.4637 6.16346 12.1531 5.47359 12.1531 4.62259C12.1531 3.7716 11.4637 3.08173 10.6134 3.08173C9.76307 3.08173 9.07373 3.7716 9.07373 4.62259C9.07373 5.47359 9.76307 6.16346 10.6134 6.16346Z" fill="#1F1646"/><path d="M15.5612 6.16346C16.4115 6.16346 17.1008 5.47359 17.1008 4.62259C17.1008 3.7716 16.4115 3.08173 15.5612 3.08173C14.7108 3.08173 14.0215 3.7716 14.0215 4.62259C14.0215 5.47359 14.7108 6.16346 15.5612 6.16346Z" fill="#1F1646"/><path d="M51.9999 44.9728V17.1756C51.9999 16.6003 51.5483 16.1483 50.9735 16.1483H37.0138C36.4389 16.1483 35.9873 16.6003 35.9873 17.1756V44.9728C35.9873 45.548 36.4389 46 37.0138 46H50.9735C51.5483 46 51.9999 45.5275 51.9999 44.9728Z" fill="#36BDA4"/><path d="M50.5423 18.963H37.4448V43.1854H50.5423V18.963Z" fill="white"/><path d="M49.0231 20.5038H38.9639V26.1742H49.0231V20.5038Z" fill="#A6A8AB"/><path d="M49.0231 28.2286H38.9639V33.899H49.0231V28.2286Z" fill="#A6A8AB"/><path d="M49.0231 35.9536H38.9639V41.6239H49.0231V35.9536Z" fill="#A6A8AB"/></g><defs><clipPath id="clip0"><rect width="52" height="46" fill="white"/></clipPath></defs></svg>