<?xml version="1.0" encoding="utf-8" ?>
<!DOCTYPE svg PUBLIC "-//W3C//DTD SVG 1.1//EN" "http://www.w3.org/Graphics/SVG/1.1/DTD/svg11.dtd">
<svg xmlns="http://www.w3.org/2000/svg" width="90" height="90" viewBox="0 0 90 90" fill="none"><circle cx="45" cy="45" r="45" fill="url('#paint0_radial')"/><path d="M44.9998 75.8332C62.0286 75.8332 75.8332 62.0286 75.8332 44.9998C75.8332 27.9711 62.0286 14.1665 44.9998 14.1665C27.9711 14.1665 14.1665 27.9711 14.1665 44.9998C14.1665 62.0286 27.9711 75.8332 44.9998 75.8332Z" fill="#2196F3"/><path d="M52.7085 55.7918H29.5835C27.029 55.7918 24.9585 53.7214 24.9585 51.1668V34.2085H48.0835C50.638 34.2085 52.7085 36.279 52.7085 38.8335V55.7918Z" fill="white"/><path d="M65.0415 55.7918L55.7915 49.6252V40.3752L65.0415 34.2085V55.7918Z" fill="white"/><defs><radialGradient id="paint0_radial" cx="0" cy="0" r="1" gradientUnits="userSpaceOnUse" gradientTransform="translate(45 45) rotate(90) scale(45)"><stop stop-color="white"/><stop offset="1" stop-color="#EFEFEF"/></radialGradient></defs></svg>