<?xml version="1.0" encoding="UTF-8"?> <!-- Generator: Adobe Illustrator 24.2.1, SVG Export Plug-In . SVG Version: 6.00 Build 0) --> <svg xmlns="http://www.w3.org/2000/svg" xmlns:xlink="http://www.w3.org/1999/xlink" version="1.1" id="Layer_1" x="0px" y="0px" viewBox="0 0 210.078 210.079" style="enable-background:new 0 0 210.078 210.079;" xml:space="preserve"> <style type="text/css"> .st0{fill:url(#SVGID_1_);} .st1{fill:#E6E7E8;} .st2{fill:#1F1747;} .st3{fill:#42BCA2;} .st4{fill:#A6A8AB;} .st5{fill:#6BCDB2;} .st6{fill:#FFFFFF;} .st7{fill:url(#SVGID_2_);} .st8{fill:#D0D2D3;} .st9{fill:#533D24;} .st10{fill:#191334;} .st11{fill:url(#SVGID_3_);} .st12{fill:none;stroke:#F0525A;stroke-width:55;stroke-miterlimit:10;} .st13{fill:#E2F4EE;} .st14{fill:url(#SVGID_4_);} .st15{fill:#F0525A;} .st16{fill:#3ABBA3;} .st17{fill:url(#SVGID_5_);} .st18{fill:url(#SVGID_6_);} .st19{fill:url(#SVGID_7_);} .st20{fill:url(#SVGID_8_);} .st21{fill:url(#SVGID_9_);} .st22{fill:url(#SVGID_10_);} .st23{fill:url(#SVGID_11_);} .st24{fill:url(#SVGID_15_);} .st25{fill:none;stroke:#D0D2D3;stroke-width:13.0904;stroke-miterlimit:10;} .st26{fill:url(#SVGID_16_);} .st27{opacity:0.15;} .st28{fill:url(#SVGID_17_);} .st29{fill:#0E0E19;} .st30{fill:#D1D1D1;} .st31{fill:#CBE8E1;} .st32{fill:#01BCE1;} .st33{fill:#544026;} .st34{fill:#646565;} .st35{fill:#56432A;} .st36{fill:#B3A08B;} .st37{fill:#CCCCCC;} .st38{fill:#040418;} .st39{fill:#D0CFCF;} .st40{fill:#3E3D3D;} .st41{fill:#C09E86;} .st42{fill:#BB9B83;} .st43{fill:#BA9D86;} .st44{fill:#C09F8B;} .st45{fill:#BDA38C;} .st46{fill:#646464;} .st47{fill:#08061A;} .st48{fill:url(#SVGID_18_);} .st49{fill:url(#SVGID_19_);} .st50{fill:url(#SVGID_20_);} .st51{fill:url(#SVGID_21_);} .st52{fill:url(#SVGID_22_);} .st53{fill:#BBA089;} .st54{fill:#DE5E5E;} .st55{fill:#010116;} .st56{fill:#D0D0D0;} .st57{fill:#BE9F86;} .st58{fill:#BFA189;} .st59{fill:#CFCFCF;} .st60{fill:#030317;} .st61{fill:#C0A188;} .st62{fill:#BB9886;} .st63{fill:#050419;} .st64{fill:#C2A088;} .st65{fill:#D1D0D0;} .st66{fill:#BA9B84;} .st67{fill:#1B4C56;} .st68{fill:#295862;} .st69{fill:#EBD5C5;} .st70{fill:#01C7ED;} .st71{fill:#C5B465;} .st72{fill:#EBD5C6;} .st73{fill:#0FC6E3;} .st74{fill:#010217;} .st75{fill:#E8D2C3;} .st76{fill:#C8CCCD;} .st77{fill:#10C8EA;} .st78{fill:#0D0E18;} .st79{fill:#191435;} .st80{fill:#191536;} .st81{fill:#B89A81;} .st82{fill:#B99982;} .st83{fill:#412D16;} .st84{fill:#B69880;} .st85{fill:#CFD0D0;} .st86{fill:#BC9D83;} .st87{fill:#B99A80;} .st88{fill:#101019;} </style> <g> <g> <g> <path class="st5" d="M31.058,178.99c-40.776-40.776-40.776-107.124,0-147.901s107.124-40.776,147.901,0l-32.98,32.98 c-22.592-22.59-59.349-22.59-81.94,0c-22.591,22.591-22.591,59.349,0,81.94L31.058,178.99z"></path> </g> </g> <g> <g> <path class="st1" d="M105.009,209.572c-26.782,0-53.562-10.195-73.95-30.583l32.98-32.98c22.592,22.59,59.349,22.59,81.94,0 c6.923-6.923,11.828-15.15,14.582-24.452l44.723,13.235c-4.914,16.606-14.017,31.889-26.325,44.197 C158.571,199.378,131.79,209.572,105.009,209.572z"></path> </g> </g> <g> <g> <path class="st2" d="M205.284,134.795l-44.723-13.239c6.045-20.42,0.457-42.448-14.582-57.487l32.98-32.98 C206.098,58.228,216.186,97.966,205.284,134.795z"></path> </g> </g> <g id="XMLID_1_"> <g> <path class="st2" d="M106.517,101.646v10.305h24.633c-0.754,5.781-2.681,10.012-5.614,12.987 c-3.603,3.603-9.216,7.541-19.019,7.541c-15.165,0-27.02-12.232-27.02-27.397s11.855-27.397,27.02-27.397 c8.169,0,14.16,3.226,18.558,7.373l7.247-7.247c-6.116-5.949-14.327-10.473-25.806-10.473c-20.778,0-38.248,16.924-38.248,37.703 s17.469,37.703,38.248,37.703c11.227,0,19.689-3.687,26.308-10.557c6.787-6.787,8.923-16.38,8.923-24.088 c0-2.388-0.168-4.608-0.545-6.451H106.517z"></path> </g> </g> </g> </svg> 