<?xml version="1.0" encoding="UTF-8"?> <svg xmlns="http://www.w3.org/2000/svg" viewBox="0 0 792 612"><path d="m464.7 336.2v21.2h-28.6-11.7-13.3v-105.4h24.9v19.7h23v20h-22.9v44.5zm39.7 0v-44.5h22.9v-20h-22.9v-19.7h-24.9v105.4h13.3 11.7 28.5v-21.2zm-108.5-21.1c0 24.8-20.7 44.9-46.3 44.9s-46.3-20.1-46.3-44.9 20.8-44.9 46.3-44.9 46.3 20.1 46.3 44.9zm-25-.1c0-12.9-9.6-23.3-21.4-23.3s-21.4 10.5-21.4 23.3 9.6 23.3 21.4 23.3c11.8.1 21.4-10.4 21.4-23.3zm263 .1c0 24.8-20.7 44.9-46.3 44.9s-46.3-20.1-46.3-44.9 20.8-44.9 46.3-44.9c25.6 0 46.3 20.1 46.3 44.9zm-25-.1c0-12.9-9.6-23.3-21.4-23.3s-21.4 10.5-21.4 23.3 9.6 23.3 21.4 23.3c11.9.1 21.4-10.4 21.4-23.3zm-327.8-36.8c-5.1-5.3-12.2-8-21.2-8-5.9 0-11.1 1.2-15.7 3.5s-8.7 5.7-12.5 10.2c-2.2-4.4-5.4-7.8-9.5-10.1-4.1-2.4-9-3.5-14.6-3.5-3.1 0-5.9.4-8.4 1.1-2.5.8-4.8 1.8-6.8 3.1s-3.9 2.8-5.5 4.4c-1.7 1.7-3.2 3.4-4.6 5.2v-12.2h-24.3v85.6h24.3v-61h28.9v61h24.3v-61h28.9v61h24.3v-55.8c.1-10.4-2.5-18.2-7.6-23.5z" fill="#14cdab"></path></svg> 