<?xml version="1.0" encoding="UTF-8"?> <!-- Generator: Adobe Illustrator 24.2.1, SVG Export Plug-In . SVG Version: 6.00 Build 0) --> <svg xmlns="http://www.w3.org/2000/svg" xmlns:xlink="http://www.w3.org/1999/xlink" version="1.1" id="Layer_1" x="0px" y="0px" viewBox="0 0 224.539 211.446" style="enable-background:new 0 0 224.539 211.446;" xml:space="preserve"> <style type="text/css"> .st0{fill:url(#SVGID_1_);} .st1{fill:#E6E7E8;} .st2{fill:#1F1747;} .st3{fill:#42BCA2;} .st4{fill:#A6A8AB;} .st5{fill:#6BCDB2;} .st6{fill:#FFFFFF;} .st7{fill:url(#SVGID_2_);} .st8{fill:#D0D2D3;} .st9{fill:#533D24;} .st10{fill:#191334;} .st11{fill:url(#SVGID_3_);} .st12{fill:none;stroke:#F0525A;stroke-width:55;stroke-miterlimit:10;} .st13{fill:#E2F4EE;} .st14{fill:url(#SVGID_4_);} .st15{fill:#F0525A;} .st16{fill:#3ABBA3;} .st17{fill:url(#SVGID_5_);} .st18{fill:url(#SVGID_6_);} .st19{fill:url(#SVGID_7_);} .st20{fill:url(#SVGID_8_);} .st21{fill:url(#SVGID_9_);} .st22{fill:url(#SVGID_10_);} .st23{fill:url(#SVGID_11_);} .st24{fill:url(#SVGID_15_);} .st25{fill:none;stroke:#D0D2D3;stroke-width:13.0904;stroke-miterlimit:10;} .st26{fill:url(#SVGID_16_);} .st27{opacity:0.15;} .st28{fill:url(#SVGID_17_);} .st29{fill:#0E0E19;} .st30{fill:#D1D1D1;} .st31{fill:#CBE8E1;} .st32{fill:#01BCE1;} .st33{fill:#544026;} .st34{fill:#646565;} .st35{fill:#56432A;} .st36{fill:#B3A08B;} .st37{fill:#CCCCCC;} .st38{fill:#040418;} .st39{fill:#D0CFCF;} .st40{fill:#3E3D3D;} .st41{fill:#C09E86;} .st42{fill:#BB9B83;} .st43{fill:#BA9D86;} .st44{fill:#C09F8B;} .st45{fill:#BDA38C;} .st46{fill:#646464;} .st47{fill:#08061A;} .st48{fill:url(#SVGID_18_);} .st49{fill:url(#SVGID_19_);} .st50{fill:url(#SVGID_20_);} .st51{fill:url(#SVGID_21_);} .st52{fill:url(#SVGID_22_);} .st53{fill:#BBA089;} .st54{fill:#DE5E5E;} .st55{fill:#010116;} .st56{fill:#D0D0D0;} .st57{fill:#BE9F86;} .st58{fill:#BFA189;} .st59{fill:#CFCFCF;} .st60{fill:#030317;} .st61{fill:#C0A188;} .st62{fill:#BB9886;} .st63{fill:#050419;} .st64{fill:#C2A088;} .st65{fill:#D1D0D0;} .st66{fill:#BA9B84;} .st67{fill:#1B4C56;} .st68{fill:#295862;} .st69{fill:#EBD5C5;} .st70{fill:#01C7ED;} .st71{fill:#C5B465;} .st72{fill:#EBD5C6;} .st73{fill:#0FC6E3;} .st74{fill:#010217;} .st75{fill:#E8D2C3;} .st76{fill:#C8CCCD;} .st77{fill:#10C8EA;} .st78{fill:#0D0E18;} .st79{fill:#191435;} .st80{fill:#191536;} .st81{fill:#B89A81;} .st82{fill:#B99982;} .st83{fill:#412D16;} .st84{fill:#B69880;} .st85{fill:#CFD0D0;} .st86{fill:#BC9D83;} .st87{fill:#B99A80;} .st88{fill:#101019;} </style> <g> <g> <path class="st3" d="M112.27,211.396c-27.073,0-54.146-10.305-74.758-30.915C-3.71,139.26-3.71,72.187,37.512,30.966 c41.221-41.221,108.295-41.221,149.516,0c41.221,41.222,41.221,108.294,0,149.516l0,0 C166.416,201.092,139.343,211.396,112.27,211.396z M112.27,25.038c-20.674,0-41.341,7.866-57.08,23.605 c-31.474,31.474-31.474,82.687,0,114.16c31.475,31.473,82.686,31.473,114.16,0c31.474-31.474,31.474-82.687,0-114.16 C153.614,32.908,132.939,25.038,112.27,25.038z"></path> </g> <g> <path class="st3" d="M112.27,211.446c-19.009,0-30.14-19.285-36.13-35.464c-14.587-39.397-14.587-101.12,0-140.518 C82.13,19.286,93.261,0,112.27,0s30.14,19.286,36.13,35.465c14.587,39.397,14.587,101.12,0,140.518l0,0 C142.409,192.161,131.278,211.446,112.27,211.446z M112.27,25c-1.11,0-6.857,3.406-12.685,19.145 c-12.359,33.38-12.359,89.778,0,123.158c5.827,15.737,11.574,19.144,12.685,19.144s6.857-3.406,12.685-19.144l0,0 c12.359-33.38,12.359-89.778,0-123.158C119.127,28.406,113.38,25,112.27,25z"></path> </g> <g> <path class="st2" d="M219.539,70.758H5c-2.761,0-5,2.239-5,5v59.93c0,2.761,2.239,5,5,5h214.539c2.761,0,5-2.239,5-5v-59.93 C224.539,72.997,222.301,70.758,219.539,70.758z"></path> </g> <g> <path class="st6" d="M75.369,122.064h-6.03l-7.109-20.608l-7.11,20.608H49.09L38.335,90.341h7.425l6.525,21.329l7.064-21.419 h5.939l7.064,21.419l6.525-21.329h7.244L75.369,122.064z"></path> <path class="st6" d="M125.408,122.064h-6.03l-7.109-20.608l-7.11,20.608h-6.029L88.374,90.341h7.425l6.525,21.329l7.064-21.419 h5.939l7.064,21.419l6.525-21.329h7.244L125.408,122.064z"></path> <path class="st6" d="M175.448,122.064h-6.03l-7.109-20.608l-7.11,20.608h-6.029l-10.755-31.724h7.425l6.525,21.329l7.064-21.419 h5.939l7.064,21.419l6.525-21.329h7.244L175.448,122.064z"></path> </g> </g> </svg> 