<?xml version="1.0" encoding="UTF-8"?> <svg xmlns="http://www.w3.org/2000/svg" xmlns:xlink="http://www.w3.org/1999/xlink" width="271px" height="644px" viewBox="0 0 271 644" version="1.1"><title>Group</title><g id="Page-1" stroke="none" stroke-width="1" fill="none" fill-rule="evenodd"><g id="Motto_Plan_Google-Friendly" transform="translate(-1001.000000, -60.000000)" fill-rule="nonzero"><g id="Group" transform="translate(1001.000000, 60.000000)"><path d="M77.601,616.644 C72.586,619.378 67.452,619.903 62.163,617.724 C62.237,616.041 62.3,614.61 62.363,613.179 C63.239,613.215 73.339,614.225 77.549,614.157 C77.567,614.986 77.584,615.815 77.601,616.644 Z" id="Path" fill="#BBA089"></path><path d="M255.733,631.733 C255.659,635.017 254.11,636.687 250.883,636.659346 C240.377,636.568 175.813,635.22 174.363,635.02 C172.371,633.829 171.904,632.054 171.961,629.808 C172.123,623.442 181.766,118.197 181.963,117.082 C183.138,117.113 184.315,117.197 185.488,117.167 C198.914,116.831 212.338,116.442 225.764,116.138 C238.312,115.854 250.862,115.655 263.411,115.419 C264.926,116.39 264.706,117.929 264.683,119.385 C264.483,132.124 262.581,239.893 262.497,244.346 C262.185,245.16 261.976,246.031 261.547,246.777 C259.949,249.555 258.475,252.434 256.598,255.016 C252.324,260.895 250.602,267.391 250.944,274.593 C251.055,276.934 256.37,285.08 259.524,284.726 C260.295,284.64 261.089,284.744 261.872,284.76 C261.778,288.295 261.684,291.83 261.59,295.364 C260.844,296.105 256.064,617.102 255.733,631.733 Z" id="Path" fill="#DE5E5E"></path><path d="M47.188,311.854 C54.453,315.983 111.892,335.118 118.166,335.942 C125.725,336.935 133.434,337.345 141.056,337.146 C148.471,336.953 155.856,335.654 163.061,333.669 C163.23,334.823 163.515,335.973 163.55,337.13 C163.846,346.838 164.094,356.547 164.36,366.256 C164.882,385.375 164.227,404.529 166.062,423.61 C166.775,431.028 167.619,438.438 168.108,445.871 C168.759,455.757 169.11,465.663 169.613,475.559 C169.757,478.399 169.919,481.24 170.185,484.07 C170.772,490.319 171.375,496.567 172.078,502.803 C172.55,506.986 173.205,511.147 173.779,515.319 C173.7,525.786 173.689,536.254 173.526,546.72 C173.234,565.434 172.851,584.147 172.506,602.861 C169.27,605.846 165.742,608.059 161.051,607.193 C157.458,603.613 155.24,599.134 153.104,594.652 C149.394,586.871 146.34,578.811 143.743,570.598 C139.788,558.091 135.813,545.584 132.246,532.963 C130.144,525.524 128.783,517.872 127.147,510.304 C126.173,505.801 125.255,501.284 124.417,496.754 C123.721,492.992 123.232,489.192 122.553,485.426 C121.615,480.217 120.58,475.025 119.595,469.824 C118.609,464.622 117.653,459.414 116.648,454.216 C115.587,448.729 114.514,443.244 113.391,437.769 C112.131,431.622 110.773,425.494 109.523,419.344 C108.175,412.711 106.916,406.06 105.581,399.425 C105.416,398.604 105.022,397.828 104.321,397.107 C104.071,399.787 103.798,402.466 103.576,405.148 C102.914,413.175 101.885,421.143 100.431,429.076 C99.247,435.538 98.577,442.096 97.747,448.62 C96.211,460.692 94.659,472.763 93.237,484.849 C92.147,494.111 91.323,503.404 90.245,512.668 C88.826,524.855 87.472,537.055 85.719,549.196 C84.132,560.191 83.242,571.238 82.294,582.29 C81.875,587.178 81.111,592.037 80.663,596.923 C80.304,600.83 77.685,613.992 77.55,614.153 C73.339,614.221 61.659,615.357 60.599,611.98 C58.851,606.687 56.795,601.472 55.426,596.082 C53.352,587.917 51.713,579.64 49.978,571.391 C49.413,568.705 49.09,565.966 48.716,563.243 C47.059,551.181 45.733,539.087 44.631,526.957 C42.194,500.129 40.991,473.26 41.193,446.324 C41.314,430.113 41.159,413.897 41.532,397.692 C41.774,387.195 42.692,376.71 43.4,366.226 C44.406,351.331 45.501,336.442 46.551,321.549 C46.778,318.322 46.976,315.088 47.188,311.854 Z" id="Path" fill="#010116"></path><path d="M180.922,137.386 C180.869,144.641 179.471,215.07 179.356,215.838 C177.301,213.645 175.154,211.532 173.214,209.242 C170.966,206.589 168.901,203.781 166.582,200.817 C166.132,201.512 164.445,207.205 163.718,209.63 C161.467,217.142 160.497,224.906 159.176,232.597 C158.732,235.185 158.494,237.86 158.594,240.478 C158.787,245.549 159.251,250.612 159.67,255.673 C160,259.659 160.33,263.65 160.84,267.616 C161.948,276.225 163.309,284.804 164.304,293.425 C165.121,300.504 165.541,307.627 166.171,314.728 C166.499,318.42 166.857,322.111 167.279,325.793 C167.805,330.383 167.107,331.75 163.062,333.671 C107.475,348.787 46.089,321.044 45.49,320.738 C42.396,319.159 41.223,316.703 41.08,313.194 C40.844,307.391 39.311,281.175 39.287,280.263 C39.23,278.121 38.932,275.986 38.841,273.844 C38.746,271.591 38.851,269.329 38.744,267.077 C38.422,260.345 37.867,253.619 37.725,246.884 C37.545,238.353 37.663,229.816 37.701,221.282 C37.707,219.827 32.372,218.954 32.536,217.502 C32.888,214.392 33.345,214.548 30.652,212.119 C23.385,205.563 21.299,195.277 14.224,188.508 C14.016,188.309 13.745,188.175 13.503,188.01 C11.995,186.901 12.251,185.51 12.909,184.086 C15.745,177.951 18.345,171.691 21.496,165.722 C26.432,156.372 32.25,147.544 38.793,139.23 C41.755,135.467 44.938,131.872 48.128,128.296 C50.932,125.153 53.86,122.12 56.777,119.08 C61.363,114.301 66.306,109.961 72.956,108.396 C76.545,107.552 80.238,107.018 83.915,106.71 C88.884,106.293 93.882,106.227 98.869,106.01 C99.302,108.7 99.523,111.445 100.212,114.067 C101.697,119.712 107.934,123.562 113.618,122.432 C115.403,122.077 117.19,121.498 118.835,120.722 C124.7,117.956 129.866,114.414 131.972,107.796 C134.026,107.797 136.083,107.869 138.134,107.787 C144.79,107.521 150.711,110.003 156.48,112.832 C159.072,114.103 161.64,115.671 163.753,117.612 C166.962,120.56 169.885,123.849 172.706,127.182 C175.156,130.077 177.283,133.244 179.588,136.263 C179.932,136.716 180.473,137.016 180.922,137.386 Z" id="Path" fill="#D0D0D0"></path><path d="M92.742,20.032 C93.674,20.314 93.841,23.583 94.749,23.93 C99.646,25.799 104.582,25.748 109.766,25.114 C116.631,24.275 123.527,23.002 130.542,24.208 C133.338,24.689 135.161,25.639 136.007,28.575 C138.597,37.568 138.852,46.489 136.149,55.12 C132.122,54.638 128.391,54.081 124.64,53.77 C120.343,53.414 116.029,53.206 111.719,53.061 C105.136,52.839 98.599,53.311 92.171,54.83 C89.885,55.37 87.653,56.075 85.822,57.686 C85.414,58.045 84.814,58.186 84.302,58.427 C84.161,52.754 84.359,47.107 85.442,41.513 C86.507,36.008 88.438,30.806 90.799,25.745 C91.209,24.867 92.358,20.924 92.742,20.032 Z" id="Path" fill="#BE9F86"></path><path d="M100.527,87.593 C102.875,87.606 105.448,91.47 107.794,91.404 C114.923,91.205 121.366,88.94 127.181,84.835 C127.402,84.679 127.692,84.619 127.95,84.514 C128.879,87.745 131.918,103.235 131.972,107.797 C129.866,114.414 124.701,117.957 118.835,120.723 C117.19,121.499 115.403,122.078 113.618,122.433 C107.934,123.563 101.697,119.713 100.212,114.068 C99.522,111.446 99.302,108.701 98.869,106.011 C98.84,101.049 99.462,92.414 100.527,87.593 Z" id="Path" fill="#BFA189"></path><path d="M263.411,115.419 C250.862,115.655 238.312,115.854 225.765,116.138 C212.339,116.442 198.914,116.831 185.489,117.167 C184.315,117.196 183.139,117.113 181.964,117.082 C182.704,114.355 183.333,111.592 184.206,108.908 C186.801,100.93 189.479,92.979 192.149,85.025 C194.323,78.549 196.543,72.088 198.721,65.614 C199.685,62.748 200.553,59.849 201.564,57.001 C201.796,56.347 202.434,55.836 202.885,55.26 C203.85,55.179 204.815,55.029 205.78,55.029 C215.594,55.022 225.408,55.048 235.223,55.04 C236.393,55.039 237.563,54.888 238.734,54.807 C242.37,63.545 246.001,72.284 249.642,81.02 C253.651,90.638 257.693,100.242 261.659,109.878 C262.392,111.663 262.834,113.569 263.411,115.419 Z" id="Path" fill="#CFCFCF"></path><path d="M88.686,21.12 C85.154,18.417 83.241,12.189 84.785,9.428 C86.329,6.667 88.875,2.506 95.573,5.019 C97.747,5.504 100.228,4.875 102.526,4.478 C104.834,4.079 107.168,3.568 109.346,2.73 C115.985,0.176 122.831,0.362 129.654,1.211 C132.818,1.604 135.835,2.912 138.443,5.031 C144.267,9.765 147.916,15.894 150.019,22.959 C150.649,25.077 150.698,27.426 150.684,29.667 C150.633,37.524 150.307,45.408 148.174,53 C144.859,64.805 138.126,75.55 127.845,85.146 C117.564,94.742 95.925,94.105 87.72,81.928 C84.739,77.177 81.928,72.271 82.496,66.383 C82.755,63.699 83.679,61.078 84.302,58.429 C86.965,56.065 89.885,55.372 92.171,54.831 C98.599,53.312 105.136,52.84 111.719,53.062 C116.03,53.208 120.343,53.415 124.64,53.771 C128.391,54.082 132.122,54.638 136.149,55.121 C138.852,46.49 138.597,37.569 136.007,28.576 C135.161,25.64 133.339,24.689 130.542,24.209 C123.527,23.003 116.631,24.276 109.766,25.115 C98.128,27.18 92.217,23.823 88.686,21.12 Z M95.075,67.659 C96.219,69.404 97.188,70.961 98.234,72.465 C101.128,76.626 105.499,77.538 109.352,76.294 C112.982,75.122 116.42,73.433 119.006,70.457 C120.002,69.31 120.913,68.09 121.912,66.843 C115.947,64.062 101.453,64.495 95.075,67.659 Z" id="Shape" fill="#030317"></path><path d="M13.502,188.01 C13.744,188.175 14.015,188.309 14.223,188.508 C21.297,195.278 37.855,212.287 37.855,212.287 C37.691,213.739 37.706,219.826 37.7,221.281 C37.662,229.815 39.229,278.12 39.2860353,280.262 C39.31,281.173 27.078,268.057 21.454,260.417 C16.872,254.192 12.419,247.851 8.305,241.312 C5.353,236.619 2.308,231.902 0.588,226.529 C-0.152,224.218 -0.18,221.93 0.417,219.576 C2.15,212.735 4.387,206.085 7.592,199.778 C9.581,195.865 11.533,191.933 13.502,188.01 Z" id="Path" fill="#C0A188"></path><path d="M62.271,615.287 C62.237,616.055 62.202,616.856 62.164,617.724 C67.453,619.903 72.586,619.378 77.602,616.644 C79.407,616.429 80.319,617.553 80.924,618.983 C81.419,620.152 81.983,621.365 82.116,622.601 C82.574,626.883 82.945,631.187 81.786,635.437 C81.76,635.531 81.72,635.622 81.691,635.715 C79.924,641.26 79.824,641.197 73.836,641.412 C68.47,641.605 63.121,642.243 57.756,642.485 C50.713,642.802 43.662,642.979 36.612,643.091 C34.674,643.122 32.721,642.756 30.791,642.469 C30.138,642.372 29.478,642.04 28.914,641.674 C26.762,640.276 26.475,638.848 28.371,637.213 C30.268,635.577 32.376,634.094 34.599,632.946 C39.545,630.391 44.615,628.073 49.647,625.688 C51.694,624.718 53.018,623.161 54.016,621.139 C55.05,619.043 56.272,617.02 57.604,615.099 C57.989,614.544 58.949,613.993 59.915,613.611 C61.075,613.15 62.326,614.038 62.271,615.287 Z" id="Path" fill="#D0D0D0"></path><path d="M172.128,610.701 C170.494,611.62 165.497,612.022 163.856,611.984 C163.034,610.246 161.727,607.487 161.047,607.194 C165.741,608.061 169.269,605.848 172.505,602.863 C172.379,605.476 172.254,608.088 172.128,610.701 Z" id="Path" fill="#BB9886"></path><path d="M238.733,54.806 C237.563,54.887 236.393,55.038 235.222,55.039 C225.408,55.047 215.594,55.021 205.779,55.028 C204.814,55.029 203.849,55.179 202.884,55.259 C203.229,53.57 203.406,51.825 203.947,50.201 C208.59,36.274 213.297,22.369 217.998,8.461 C218.113,8.122 218.38,7.834 218.753,7.24 C219.307,7.886 219.866,8.289 220.086,8.83 C226.323,24.148 232.525,39.478 238.733,54.806 Z" id="Path" fill="#050419"></path><path d="M261.872,284.759 C253.297,287.363 251.056,276.933 250.945,274.592 C250.603,267.39 252.325,260.894 256.599,255.015 C258.476,252.433 260.9,247.124 262.497,244.346 C262.497,244.346 269.313,244.796 270.292,250.188 C270.912,256.924 270.602,263.687 269.092,270.289 C268.178,275.756 263.565,284.573 261.872,284.759 Z" id="Path" fill="#C2A088"></path><path d="M172.128,610.701 C172.087,617.07 172.123,623.441 171.961,629.808 C171.904,632.054 172.37,633.829 174.363,635.02 C168.999,637.757 163.676,640.577 158.254,643.193 C155.578,644.484 153.472,643.957 151.849,642.185 C150.979,641.235 150.792,640.315 151.09,638.994 C151.855,635.596 154.393,633.565 156.604,631.271 C158.972,628.814 161.438,626.452 163.791,623.981 C166.004,621.656 165.609,618.551 165.958,615.709 C166.008,615.305 165.049,614.66 164.447,614.322 C163.715,613.911 162.723,613.885 162.101,613.377 C160.951,612.439 161.335,611.041 162.814,610.832 C164.254,610.628 165.741,610.754 167.207,610.735 C168.849,610.771 170.494,611.621 172.128,610.701 Z" id="Path" fill="#D1D0D0"></path><path d="M95.075,67.659 C101.453,64.495 115.947,64.062 121.912,66.842 C120.913,68.09 120.002,69.31 119.006,70.456 C116.421,73.432 112.982,75.121 109.352,76.293 C105.498,77.537 101.128,76.625 98.234,72.464 C97.189,70.961 96.219,69.404 95.075,67.659 Z" id="Path" fill="#BA9B84"></path></g></g></g></svg> 