<?xml version="1.0" encoding="UTF-8"?>
<svg width="357px" height="204px" viewBox="0 0 357 204" version="1.1" xmlns="http://www.w3.org/2000/svg" xmlns:xlink="http://www.w3.org/1999/xlink">
    <title>Artboard</title>
    <g id="Artboard" stroke="none" stroke-width="1" fill="none" fill-rule="evenodd">
        <g id="Group-3" transform="translate(0.006596, 90.464907)">
            <path d="M69.6398898,11.5350931 L353.400595,11.5350931 C356.33674,11.5350931 357.759117,12.9996839 356.577565,14.8063482 L294.802667,109.263838 C293.621115,111.070502 290.283062,112.535093 287.346917,112.535093 L3.58621198,112.535093 C0.650067524,112.535093 -0.772310145,111.070502 0.409242533,109.263838 L62.1841396,14.8063482 C63.3656923,12.9996839 66.7037453,11.5350931 69.6398898,11.5350931 Z" id="Rectangle-Copy-5" fill="#382D64"></path>
            <polygon id="Path-5" fill="#382D64" points="-0.00659647987 99.5834419 -0.00659647987 111.535093 12.9934035 110.813974 8.1739688 90.5350931"></polygon>
            <polygon id="Path-6" fill="#382D64" points="356.993404 1.53509312 356.993404 13.8977451 339.993404 14.5350931 345.843549 3.35099178"></polygon>
            <path d="M351.32,3.535 L291.45502,95.0744873 C290.803987,96.0699556 288.84153,96.5350931 287.346917,96.5350931 L287.346917,96.5350931 L5.664,96.535 L65.531787,4.99569892 C66.1518185,4.04763393 67.9613499,3.5805945 69.4233832,3.53826436 L69.6398898,3.53509312 L351.32,3.535 Z" id="Rectangle-Copy" stroke-opacity="0.5" stroke="#E6E4ED" stroke-width="8" fill="#42BCA2"></path>
        </g>
        <g id="Group-2" transform="translate(66.771297, 35.971515)">
            <path d="M55.8042797,7.02848535 L286.310175,7.02848535 C288.695278,7.02848535 289.850711,8.21755905 288.890906,9.68435579 L238.709617,86.3726149 C237.749813,87.8394116 235.038229,89.0284853 232.653126,89.0284853 L2.14723051,89.0284853 C-0.237872828,89.0284853 -1.39330567,87.8394116 -0.433500973,86.3726149 L49.747788,9.68435579 C50.7075927,8.21755905 53.4191764,7.02848535 55.8042797,7.02848535 Z" id="Rectangle-Copy-4" fill="#C8D5E3"></path>
            <polygon id="Path-3" fill="#C8D5E3" points="-0.771297369 88.0284853 -0.771297369 81.0284853 5.22870263 81.0284853 4.00932423 88.0284853"></polygon>
            <polygon id="Path-4" fill="#C8D5E3" points="289.228703 2.02848535 289.228703 9.02848535 282.228703 9.02848535 286.397997 2.33198914"></polygon>
            <path d="M55.8042797,0.0284853487 L286.310175,0.0284853487 C288.695278,0.0284853487 289.850711,1.21755905 288.890906,2.68435579 L238.709617,79.3726149 C237.749813,80.8394116 235.038229,82.0284853 232.653126,82.0284853 L2.14723051,82.0284853 C-0.237872828,82.0284853 -1.39330567,80.8394116 -0.433500973,79.3726149 L49.747788,2.68435579 C50.7075927,1.21755905 53.4191764,0.0284853487 55.8042797,0.0284853487 Z" id="Rectangle" fill="#EBF1F7"></path>
        </g>
        <g id="Group-2-Copy" transform="translate(29.379776, 143.886059)">
            <path d="M18.3486907,3.11394139 L94.6540905,3.11394139 C95.4436419,3.11394139 95.82613,3.50546566 95.5084016,3.98843532 L78.8966645,29.2394475 C78.5789361,29.7224171 77.6813084,30.1139414 76.8917569,30.1139414 L0.586357194,30.1139414 C-0.203194255,30.1139414 -0.585682368,29.7224171 -0.267953917,29.2394475 L16.3437831,3.98843532 C16.6615116,3.50546566 17.5591393,3.11394139 18.3486907,3.11394139 Z" id="Rectangle-Copy-4" fill="#C8D5E3"></path>
            <polygon id="Path-3" fill="#C8D5E3" points="-0.379776172 30.1139414 -0.379776172 27.1139414 1.62022383 27.4791656 1.21376436 29.4886181"></polygon>
            <polygon id="Path-4" fill="#C8D5E3" points="95.6202238 1.11394139 95.6202238 3.64035114 91.6202238 4.11394139 93.6202238 1.88815628"></polygon>
            <path d="M18.3486907,0.113941395 L94.6540905,0.113941395 C95.4436419,0.113941395 95.82613,0.505465662 95.5084016,0.988435322 L78.8966645,26.2394475 C78.5789361,26.7224171 77.6813084,27.1139414 76.8917569,27.1139414 L0.586357194,27.1139414 C-0.203194255,27.1139414 -0.585682368,26.7224171 -0.267953917,26.2394475 L16.3437831,0.988435322 C16.6615116,0.505465662 17.5591393,0.113941395 18.3486907,0.113941395 Z" id="Rectangle" fill="#EBF1F7"></path>
        </g>
        <g id="Group-2-Copy-2" transform="translate(116.626659, 143.886059)">
            <path d="M18.1018079,3.11394139 L94.4072077,3.11394139 C95.1967591,3.11394139 95.5792472,3.50546566 95.2615188,3.98843532 L78.6497818,29.2394475 C78.3320533,29.7224171 77.4344256,30.1139414 76.6448741,30.1139414 L0.339474401,30.1139414 C-0.450077048,30.1139414 -0.832565161,29.7224171 -0.51483671,29.2394475 L16.0969003,3.98843532 C16.4146288,3.50546566 17.3122565,3.11394139 18.1018079,3.11394139 Z" id="Rectangle-Copy-4" fill="#C8D5E3"></path>
            <polygon id="Path-3" fill="#C8D5E3" points="-0.626658965 30.1139414 -0.626658965 27.1139414 1.37334103 27.4791656 0.966881567 29.4886181"></polygon>
            <polygon id="Path-4" fill="#C8D5E3" points="95.373341 1.11394139 95.373341 3.64035114 91.373341 4.11394139 93.373341 1.88815628"></polygon>
            <path d="M18.1018079,0.113941395 L94.4072077,0.113941395 C95.1967591,0.113941395 95.5792472,0.505465662 95.2615188,0.988435322 L78.6497818,26.2394475 C78.3320533,26.7224171 77.4344256,27.1139414 76.6448741,27.1139414 L0.339474401,27.1139414 C-0.450077048,27.1139414 -0.832565161,26.7224171 -0.51483671,26.2394475 L16.0969003,0.988435322 C16.4146288,0.505465662 17.3122565,0.113941395 18.1018079,0.113941395 Z" id="Rectangle" fill="#EBF1F7"></path>
        </g>
        <g id="Group-2-Copy-3" transform="translate(205.654090, 143.886059)">
            <path d="M18.0743765,3.11394139 L94.3797762,3.11394139 C95.1693277,3.11394139 95.5518158,3.50546566 95.2340874,3.98843532 L78.6223503,29.2394475 C78.3046219,29.7224171 77.4069942,30.1139414 76.6174427,30.1139414 L0.312042979,30.1139414 C-0.47750847,30.1139414 -0.859996583,29.7224171 -0.542268131,29.2394475 L16.0694689,3.98843532 C16.3871973,3.50546566 17.2848251,3.11394139 18.0743765,3.11394139 Z" id="Rectangle-Copy-4" fill="#C8D5E3"></path>
            <polygon id="Path-3" fill="#C8D5E3" points="-0.654090387 30.1139414 -0.654090387 27.1139414 1.34590961 27.4791656 0.939450146 29.4886181"></polygon>
            <polygon id="Path-4" fill="#C8D5E3" points="95.3459096 1.11394139 95.3459096 3.64035114 91.3459096 4.11394139 93.3459096 1.88815628"></polygon>
            <path d="M18.0743765,0.113941395 L94.3797762,0.113941395 C95.1693277,0.113941395 95.5518158,0.505465662 95.2340874,0.988435322 L78.6223503,26.2394475 C78.3046219,26.7224171 77.4069942,27.1139414 76.6174427,27.1139414 L0.312042979,27.1139414 C-0.47750847,27.1139414 -0.859996583,26.7224171 -0.542268131,26.2394475 L16.0694689,0.988435322 C16.3871973,0.505465662 17.2848251,0.113941395 18.0743765,0.113941395 Z" id="Rectangle" fill="#EBF1F7"></path>
        </g>
        <g id="Group-Copy" transform="translate(80.826415, 69.694810)">
            <path d="M25.1448737,3.30519036 L126.885407,3.30519036 C127.938142,3.30519036 128.448126,3.84172362 128.024488,4.50357093 L105.875505,39.1068098 C105.451868,39.7686571 104.255031,40.3051904 103.202295,40.3051904 L1.46176234,40.3051904 C0.409027076,40.3051904 -0.100957074,39.7686571 0.322680861,39.1068098 L22.4716636,4.50357093 C22.8953015,3.84172362 24.0921384,3.30519036 25.1448737,3.30519036 Z" id="Rectangle-Copy-3" fill="#6E6398"></path>
            <polygon id="Path" fill="#6E6398" points="-0.82641548 34.962798 -0.82641548 40.3051904 2.02508206 40.0783859 2.17358452 34.3051904"></polygon>
            <polygon id="Path-2" fill="#6E6398" points="128.173585 1.30519036 128.173585 4.30519036 125.173585 4.30519036 125.354549 3.20324503 127.095796 1.56552125 128.089728 1.30519036"></polygon>
            <path d="M25.1448737,0.305190363 L126.885407,0.305190363 C127.938142,0.305190363 128.448126,0.841723618 128.024488,1.50357093 L105.875505,36.1068098 C105.451868,36.7686571 104.255031,37.3051904 103.202295,37.3051904 L1.46176234,37.3051904 C0.409027076,37.3051904 -0.100957074,36.7686571 0.322680861,36.1068098 L22.4716636,1.50357093 C22.8953015,0.841723618 24.0921384,0.305190363 25.1448737,0.305190363 Z" id="Rectangle-Copy-2" fill="#352867"></path>
        </g>
        <g id="Group" transform="translate(195.724825, 0.000000)">
            <path d="M31.4892865,5 L158.664953,5 C159.980872,5 160.618352,5.66704134 160.088805,6.48987854 L132.402576,49.5101215 C131.873029,50.3329587 130.376983,51 129.061064,51 L1.8853973,51 C0.56947822,51 -0.068001968,50.3329587 0.461545451,49.5101215 L28.1477738,6.48987854 C28.6773212,5.66704134 30.1733674,5 31.4892865,5 Z" id="Rectangle-Copy-3" fill="#42BCA2"></path>
            <polygon id="Path" fill="#42BCA2" points="0.275175025 44.767209 0.275175025 51 3.12667257 50.7353948 3.27517502 44"></polygon>
            <polygon id="Path-2" fill="#42BCA2" points="160.275175 1 160.275175 5 156.275175 5 156.516461 3.53073955 158.838124 1.34710785 160.163366 1"></polygon>
            <path d="M158.299,1.499 L131.141214,43.6983554 C130.811561,44.2105859 129.834761,44.5 129.061064,44.5 L129.061064,44.5 L2.25,44.5 L29.4091365,2.30164465 C29.7152424,1.82600201 30.5793482,1.54248169 31.3206954,1.50440554 L31.4892865,1.5 L158.299,1.499 Z" id="Rectangle-Copy-2" stroke="#201647" stroke-width="3" fill="#201647"></path>
        </g>
    </g>
</svg>